M48
; DRILL file {KiCad (6.0.4)} date Thu 14 Apr 2022 01:46:37 PM EDT
; FORMAT={-:-/ absolute / inch / decimal}
; #@! TF.CreationDate,2022-04-14T13:46:37-04:00
; #@! TF.GenerationSoftware,Kicad,Pcbnew,(6.0.4)
; #@! TF.FileFunction,Plated,1,2,PTH
FMAT,2
INCH
; #@! TA.AperFunction,Plated,PTH,ComponentDrill
T1C0.0295
; #@! TA.AperFunction,Plated,PTH,ComponentDrill
T2C0.0299
; #@! TA.AperFunction,Plated,PTH,ComponentDrill
T3C0.0315
; #@! TA.AperFunction,Plated,PTH,ComponentDrill
T4C0.0394
; #@! TA.AperFunction,Plated,PTH,ComponentDrill
T5C0.0433
%
G90
G05
T1
X5.8Y-3.6
T2
X5.8Y-3.7
X5.8831Y-3.6
X5.8831Y-3.7
T3
X5.4Y-3.1
X5.4Y-3.7
X5.6Y-4.0
X6.2Y-3.0
X6.2Y-3.6
X6.2Y-4.0
X6.4Y-2.7
X7.0Y-2.7
X7.6Y-3.0
X7.6Y-3.6
X7.9Y-1.9
X7.9Y-2.0
X7.9Y-2.1
X7.9Y-2.2
X7.9Y-2.7
X8.2Y-1.9
X8.2Y-2.0
X8.2Y-2.1
X8.2Y-2.2
X8.5Y-2.7
X8.9Y-2.1
X9.5Y-2.1
T4
X5.4Y-2.7
X5.9906Y-2.7
X7.2Y-4.6
X7.3Y-3.0
X7.3Y-3.5906
X7.3Y-4.6
X7.4Y-4.6
X7.5Y-4.6
T5
X9.0Y-2.4
X9.0Y-2.7
X9.4Y-2.4
X9.4Y-2.7
T0
M30
