%TF.GenerationSoftware,KiCad,Pcbnew,(6.0.4)*%
%TF.CreationDate,2022-04-14T13:38:34-04:00*%
%TF.ProjectId,pcb,7063622e-6b69-4636-9164-5f7063625858,rev?*%
%TF.SameCoordinates,Original*%
%TF.FileFunction,Soldermask,Bot*%
%TF.FilePolarity,Negative*%
%FSLAX46Y46*%
G04 Gerber Fmt 4.6, Leading zero omitted, Abs format (unit mm)*
G04 Created by KiCad (PCBNEW (6.0.4)) date 2022-04-14 13:38:34*
%MOMM*%
%LPD*%
G01*
G04 APERTURE LIST*
%ADD10C,1.760000*%
%ADD11R,1.750000X1.750000*%
%ADD12C,1.600000*%
%ADD13O,1.600000X1.600000*%
%ADD14R,1.700000X1.700000*%
%ADD15O,1.700000X1.700000*%
%ADD16O,2.200000X2.200000*%
%ADD17R,2.200000X2.200000*%
%ADD18R,1.600000X1.600000*%
%ADD19R,2.000000X2.000000*%
%ADD20O,2.000000X2.000000*%
G04 APERTURE END LIST*
D10*
%TO.C,U2*%
X147320000Y-93980000D03*
X149430000Y-93980000D03*
X149430000Y-91440000D03*
D11*
X147320000Y-91440000D03*
%TD*%
D12*
%TO.C,Rl1*%
X137160000Y-93980000D03*
D13*
X137160000Y-78740000D03*
%TD*%
D12*
%TO.C,Rf1*%
X142240000Y-101600000D03*
D13*
X157480000Y-101600000D03*
%TD*%
D14*
%TO.C,J1*%
X182880000Y-116840000D03*
D15*
X185420000Y-116840000D03*
X187960000Y-116840000D03*
X190500000Y-116840000D03*
%TD*%
D16*
%TO.C,D2*%
X228600000Y-60960000D03*
D17*
X238760000Y-60960000D03*
%TD*%
D18*
%TO.C,U1*%
X200660000Y-48260000D03*
D13*
X200660000Y-50800000D03*
X200660000Y-53340000D03*
X200660000Y-55880000D03*
X208280000Y-55880000D03*
X208280000Y-53340000D03*
X208280000Y-50800000D03*
X208280000Y-48260000D03*
%TD*%
D12*
%TO.C,R5*%
X226060000Y-53340000D03*
D13*
X241300000Y-53340000D03*
%TD*%
D12*
%TO.C,R4*%
X193040000Y-76200000D03*
D13*
X193040000Y-91440000D03*
%TD*%
D12*
%TO.C,R3*%
X215900000Y-68580000D03*
D13*
X200660000Y-68580000D03*
%TD*%
D12*
%TO.C,R2*%
X162560000Y-68580000D03*
D13*
X177800000Y-68580000D03*
%TD*%
D12*
%TO.C,R1*%
X157480000Y-76200000D03*
D13*
X157480000Y-91440000D03*
%TD*%
D19*
%TO.C,CL1*%
X185420000Y-76200000D03*
D20*
X185420000Y-91200000D03*
%TD*%
D19*
%TO.C,CH1*%
X137160000Y-68580000D03*
D20*
X152160000Y-68580000D03*
%TD*%
D17*
%TO.C,D1*%
X228600000Y-68580000D03*
D16*
X238760000Y-68580000D03*
%TD*%
M02*
