%TF.GenerationSoftware,KiCad,Pcbnew,(6.0.4)*%
%TF.CreationDate,2022-04-14T13:38:33-04:00*%
%TF.ProjectId,pcb,7063622e-6b69-4636-9164-5f7063625858,rev?*%
%TF.SameCoordinates,Original*%
%TF.FileFunction,Legend,Top*%
%TF.FilePolarity,Positive*%
%FSLAX46Y46*%
G04 Gerber Fmt 4.6, Leading zero omitted, Abs format (unit mm)*
G04 Created by KiCad (PCBNEW (6.0.4)) date 2022-04-14 13:38:33*
%MOMM*%
%LPD*%
G01*
G04 APERTURE LIST*
%ADD10C,0.150000*%
%ADD11C,0.100000*%
%ADD12C,0.120000*%
G04 APERTURE END LIST*
D10*
X191047619Y-121086666D02*
X191047619Y-121277142D01*
X191000000Y-121372380D01*
X190904761Y-121467619D01*
X190714285Y-121515238D01*
X190380952Y-121515238D01*
X190190476Y-121467619D01*
X190095238Y-121372380D01*
X190047619Y-121277142D01*
X190047619Y-121086666D01*
X190095238Y-120991428D01*
X190190476Y-120896190D01*
X190380952Y-120848571D01*
X190714285Y-120848571D01*
X190904761Y-120896190D01*
X191000000Y-120991428D01*
X191047619Y-121086666D01*
X190714285Y-122372380D02*
X190047619Y-122372380D01*
X190714285Y-121943809D02*
X190190476Y-121943809D01*
X190095238Y-121991428D01*
X190047619Y-122086666D01*
X190047619Y-122229523D01*
X190095238Y-122324761D01*
X190142857Y-122372380D01*
X190714285Y-122705714D02*
X190714285Y-123086666D01*
X191047619Y-122848571D02*
X190190476Y-122848571D01*
X190095238Y-122896190D01*
X190047619Y-122991428D01*
X190047619Y-123086666D01*
X188507619Y-120443809D02*
X188507619Y-121062857D01*
X188126666Y-120729523D01*
X188126666Y-120872380D01*
X188079047Y-120967619D01*
X188031428Y-121015238D01*
X187936190Y-121062857D01*
X187698095Y-121062857D01*
X187602857Y-121015238D01*
X187555238Y-120967619D01*
X187507619Y-120872380D01*
X187507619Y-120586666D01*
X187555238Y-120491428D01*
X187602857Y-120443809D01*
X187602857Y-121491428D02*
X187555238Y-121539047D01*
X187507619Y-121491428D01*
X187555238Y-121443809D01*
X187602857Y-121491428D01*
X187507619Y-121491428D01*
X188507619Y-121872380D02*
X188507619Y-122491428D01*
X188126666Y-122158095D01*
X188126666Y-122300952D01*
X188079047Y-122396190D01*
X188031428Y-122443809D01*
X187936190Y-122491428D01*
X187698095Y-122491428D01*
X187602857Y-122443809D01*
X187555238Y-122396190D01*
X187507619Y-122300952D01*
X187507619Y-122015238D01*
X187555238Y-121920000D01*
X187602857Y-121872380D01*
X188507619Y-122777142D02*
X187507619Y-123110476D01*
X188507619Y-123443809D01*
X185920000Y-121158095D02*
X185967619Y-121062857D01*
X185967619Y-120920000D01*
X185920000Y-120777142D01*
X185824761Y-120681904D01*
X185729523Y-120634285D01*
X185539047Y-120586666D01*
X185396190Y-120586666D01*
X185205714Y-120634285D01*
X185110476Y-120681904D01*
X185015238Y-120777142D01*
X184967619Y-120920000D01*
X184967619Y-121015238D01*
X185015238Y-121158095D01*
X185062857Y-121205714D01*
X185396190Y-121205714D01*
X185396190Y-121015238D01*
X184967619Y-121634285D02*
X185967619Y-121634285D01*
X184967619Y-122205714D01*
X185967619Y-122205714D01*
X184967619Y-122681904D02*
X185967619Y-122681904D01*
X185967619Y-122920000D01*
X185920000Y-123062857D01*
X185824761Y-123158095D01*
X185729523Y-123205714D01*
X185539047Y-123253333D01*
X185396190Y-123253333D01*
X185205714Y-123205714D01*
X185110476Y-123158095D01*
X185015238Y-123062857D01*
X184967619Y-122920000D01*
X184967619Y-122681904D01*
%TO.C,U2*%
X149768095Y-86522380D02*
X149768095Y-87331904D01*
X149815714Y-87427142D01*
X149863333Y-87474761D01*
X149958571Y-87522380D01*
X150149047Y-87522380D01*
X150244285Y-87474761D01*
X150291904Y-87427142D01*
X150339523Y-87331904D01*
X150339523Y-86522380D01*
X150768095Y-86617619D02*
X150815714Y-86570000D01*
X150910952Y-86522380D01*
X151149047Y-86522380D01*
X151244285Y-86570000D01*
X151291904Y-86617619D01*
X151339523Y-86712857D01*
X151339523Y-86808095D01*
X151291904Y-86950952D01*
X150720476Y-87522380D01*
X151339523Y-87522380D01*
%TO.C,Rl1*%
X135242380Y-86788571D02*
X134766190Y-87121904D01*
X135242380Y-87360000D02*
X134242380Y-87360000D01*
X134242380Y-86979047D01*
X134290000Y-86883809D01*
X134337619Y-86836190D01*
X134432857Y-86788571D01*
X134575714Y-86788571D01*
X134670952Y-86836190D01*
X134718571Y-86883809D01*
X134766190Y-86979047D01*
X134766190Y-87360000D01*
X135242380Y-86217142D02*
X135194761Y-86312380D01*
X135099523Y-86360000D01*
X134242380Y-86360000D01*
X135242380Y-85312380D02*
X135242380Y-85883809D01*
X135242380Y-85598095D02*
X134242380Y-85598095D01*
X134385238Y-85693333D01*
X134480476Y-85788571D01*
X134528095Y-85883809D01*
%TO.C,Rf1*%
X149407619Y-99682380D02*
X149074285Y-99206190D01*
X148836190Y-99682380D02*
X148836190Y-98682380D01*
X149217142Y-98682380D01*
X149312380Y-98730000D01*
X149360000Y-98777619D01*
X149407619Y-98872857D01*
X149407619Y-99015714D01*
X149360000Y-99110952D01*
X149312380Y-99158571D01*
X149217142Y-99206190D01*
X148836190Y-99206190D01*
X149693333Y-99015714D02*
X150074285Y-99015714D01*
X149836190Y-99682380D02*
X149836190Y-98825238D01*
X149883809Y-98730000D01*
X149979047Y-98682380D01*
X150074285Y-98682380D01*
X150931428Y-99682380D02*
X150360000Y-99682380D01*
X150645714Y-99682380D02*
X150645714Y-98682380D01*
X150550476Y-98825238D01*
X150455238Y-98920476D01*
X150360000Y-98968095D01*
%TO.C,J1*%
X183427619Y-121729523D02*
X183427619Y-121253333D01*
X182951428Y-121205714D01*
X182999047Y-121253333D01*
X183046666Y-121348571D01*
X183046666Y-121586666D01*
X182999047Y-121681904D01*
X182951428Y-121729523D01*
X182856190Y-121777142D01*
X182618095Y-121777142D01*
X182522857Y-121729523D01*
X182475238Y-121681904D01*
X182427619Y-121586666D01*
X182427619Y-121348571D01*
X182475238Y-121253333D01*
X182522857Y-121205714D01*
X183427619Y-122062857D02*
X182427619Y-122396190D01*
X183427619Y-122729523D01*
%TO.C,D2*%
X232941904Y-63882380D02*
X232941904Y-62882380D01*
X233180000Y-62882380D01*
X233322857Y-62930000D01*
X233418095Y-63025238D01*
X233465714Y-63120476D01*
X233513333Y-63310952D01*
X233513333Y-63453809D01*
X233465714Y-63644285D01*
X233418095Y-63739523D01*
X233322857Y-63834761D01*
X233180000Y-63882380D01*
X232941904Y-63882380D01*
X233894285Y-62977619D02*
X233941904Y-62930000D01*
X234037142Y-62882380D01*
X234275238Y-62882380D01*
X234370476Y-62930000D01*
X234418095Y-62977619D01*
X234465714Y-63072857D01*
X234465714Y-63168095D01*
X234418095Y-63310952D01*
X233846666Y-63882380D01*
X234465714Y-63882380D01*
X238498095Y-63512380D02*
X238498095Y-62512380D01*
X239069523Y-63512380D02*
X238640952Y-62940952D01*
X239069523Y-62512380D02*
X238498095Y-63083809D01*
%TO.C,U1*%
X203708095Y-45382380D02*
X203708095Y-46191904D01*
X203755714Y-46287142D01*
X203803333Y-46334761D01*
X203898571Y-46382380D01*
X204089047Y-46382380D01*
X204184285Y-46334761D01*
X204231904Y-46287142D01*
X204279523Y-46191904D01*
X204279523Y-45382380D01*
X205279523Y-46382380D02*
X204708095Y-46382380D01*
X204993809Y-46382380D02*
X204993809Y-45382380D01*
X204898571Y-45525238D01*
X204803333Y-45620476D01*
X204708095Y-45668095D01*
%TO.C,R5*%
X233513333Y-51422380D02*
X233180000Y-50946190D01*
X232941904Y-51422380D02*
X232941904Y-50422380D01*
X233322857Y-50422380D01*
X233418095Y-50470000D01*
X233465714Y-50517619D01*
X233513333Y-50612857D01*
X233513333Y-50755714D01*
X233465714Y-50850952D01*
X233418095Y-50898571D01*
X233322857Y-50946190D01*
X232941904Y-50946190D01*
X234418095Y-50422380D02*
X233941904Y-50422380D01*
X233894285Y-50898571D01*
X233941904Y-50850952D01*
X234037142Y-50803333D01*
X234275238Y-50803333D01*
X234370476Y-50850952D01*
X234418095Y-50898571D01*
X234465714Y-50993809D01*
X234465714Y-51231904D01*
X234418095Y-51327142D01*
X234370476Y-51374761D01*
X234275238Y-51422380D01*
X234037142Y-51422380D01*
X233941904Y-51374761D01*
X233894285Y-51327142D01*
%TO.C,R4*%
X195862380Y-83986666D02*
X195386190Y-84320000D01*
X195862380Y-84558095D02*
X194862380Y-84558095D01*
X194862380Y-84177142D01*
X194910000Y-84081904D01*
X194957619Y-84034285D01*
X195052857Y-83986666D01*
X195195714Y-83986666D01*
X195290952Y-84034285D01*
X195338571Y-84081904D01*
X195386190Y-84177142D01*
X195386190Y-84558095D01*
X195195714Y-83129523D02*
X195862380Y-83129523D01*
X194814761Y-83367619D02*
X195529047Y-83605714D01*
X195529047Y-82986666D01*
%TO.C,R3*%
X208113333Y-71402380D02*
X207780000Y-70926190D01*
X207541904Y-71402380D02*
X207541904Y-70402380D01*
X207922857Y-70402380D01*
X208018095Y-70450000D01*
X208065714Y-70497619D01*
X208113333Y-70592857D01*
X208113333Y-70735714D01*
X208065714Y-70830952D01*
X208018095Y-70878571D01*
X207922857Y-70926190D01*
X207541904Y-70926190D01*
X208446666Y-70402380D02*
X209065714Y-70402380D01*
X208732380Y-70783333D01*
X208875238Y-70783333D01*
X208970476Y-70830952D01*
X209018095Y-70878571D01*
X209065714Y-70973809D01*
X209065714Y-71211904D01*
X209018095Y-71307142D01*
X208970476Y-71354761D01*
X208875238Y-71402380D01*
X208589523Y-71402380D01*
X208494285Y-71354761D01*
X208446666Y-71307142D01*
%TO.C,R2*%
X170013333Y-66662380D02*
X169680000Y-66186190D01*
X169441904Y-66662380D02*
X169441904Y-65662380D01*
X169822857Y-65662380D01*
X169918095Y-65710000D01*
X169965714Y-65757619D01*
X170013333Y-65852857D01*
X170013333Y-65995714D01*
X169965714Y-66090952D01*
X169918095Y-66138571D01*
X169822857Y-66186190D01*
X169441904Y-66186190D01*
X170394285Y-65757619D02*
X170441904Y-65710000D01*
X170537142Y-65662380D01*
X170775238Y-65662380D01*
X170870476Y-65710000D01*
X170918095Y-65757619D01*
X170965714Y-65852857D01*
X170965714Y-65948095D01*
X170918095Y-66090952D01*
X170346666Y-66662380D01*
X170965714Y-66662380D01*
%TO.C,R1*%
X160302380Y-83986666D02*
X159826190Y-84320000D01*
X160302380Y-84558095D02*
X159302380Y-84558095D01*
X159302380Y-84177142D01*
X159350000Y-84081904D01*
X159397619Y-84034285D01*
X159492857Y-83986666D01*
X159635714Y-83986666D01*
X159730952Y-84034285D01*
X159778571Y-84081904D01*
X159826190Y-84177142D01*
X159826190Y-84558095D01*
X160302380Y-83034285D02*
X160302380Y-83605714D01*
X160302380Y-83320000D02*
X159302380Y-83320000D01*
X159445238Y-83415238D01*
X159540476Y-83510476D01*
X159588095Y-83605714D01*
%TO.C,CL1*%
X189147142Y-84271428D02*
X189194761Y-84319047D01*
X189242380Y-84461904D01*
X189242380Y-84557142D01*
X189194761Y-84700000D01*
X189099523Y-84795238D01*
X189004285Y-84842857D01*
X188813809Y-84890476D01*
X188670952Y-84890476D01*
X188480476Y-84842857D01*
X188385238Y-84795238D01*
X188290000Y-84700000D01*
X188242380Y-84557142D01*
X188242380Y-84461904D01*
X188290000Y-84319047D01*
X188337619Y-84271428D01*
X189242380Y-83366666D02*
X189242380Y-83842857D01*
X188242380Y-83842857D01*
X189242380Y-82509523D02*
X189242380Y-83080952D01*
X189242380Y-82795238D02*
X188242380Y-82795238D01*
X188385238Y-82890476D01*
X188480476Y-82985714D01*
X188528095Y-83080952D01*
%TO.C,CH1*%
X143969523Y-65567142D02*
X143921904Y-65614761D01*
X143779047Y-65662380D01*
X143683809Y-65662380D01*
X143540952Y-65614761D01*
X143445714Y-65519523D01*
X143398095Y-65424285D01*
X143350476Y-65233809D01*
X143350476Y-65090952D01*
X143398095Y-64900476D01*
X143445714Y-64805238D01*
X143540952Y-64710000D01*
X143683809Y-64662380D01*
X143779047Y-64662380D01*
X143921904Y-64710000D01*
X143969523Y-64757619D01*
X144398095Y-65662380D02*
X144398095Y-64662380D01*
X144398095Y-65138571D02*
X144969523Y-65138571D01*
X144969523Y-65662380D02*
X144969523Y-64662380D01*
X145969523Y-65662380D02*
X145398095Y-65662380D01*
X145683809Y-65662380D02*
X145683809Y-64662380D01*
X145588571Y-64805238D01*
X145493333Y-64900476D01*
X145398095Y-64948095D01*
%TO.C,D1*%
X232941904Y-66562380D02*
X232941904Y-65562380D01*
X233180000Y-65562380D01*
X233322857Y-65610000D01*
X233418095Y-65705238D01*
X233465714Y-65800476D01*
X233513333Y-65990952D01*
X233513333Y-66133809D01*
X233465714Y-66324285D01*
X233418095Y-66419523D01*
X233322857Y-66514761D01*
X233180000Y-66562380D01*
X232941904Y-66562380D01*
X234465714Y-66562380D02*
X233894285Y-66562380D01*
X234180000Y-66562380D02*
X234180000Y-65562380D01*
X234084761Y-65705238D01*
X233989523Y-65800476D01*
X233894285Y-65848095D01*
X228338095Y-66932380D02*
X228338095Y-65932380D01*
X228909523Y-66932380D02*
X228480952Y-66360952D01*
X228909523Y-65932380D02*
X228338095Y-66503809D01*
D11*
%TO.C,U2*%
X146060000Y-89920000D02*
X146060000Y-90260000D01*
X146050000Y-95850000D02*
X146550000Y-95850000D01*
X146050000Y-95840000D02*
X146050000Y-95340000D01*
X146930000Y-89540000D02*
X146430000Y-89540000D01*
X146420000Y-89540000D02*
X146060000Y-89900000D01*
X150720000Y-89540000D02*
X150720000Y-90040000D01*
X150720000Y-89540000D02*
X150220000Y-89540000D01*
X150720000Y-95840000D02*
X150720000Y-95340000D01*
X150720000Y-95840000D02*
X150220000Y-95840000D01*
D12*
%TO.C,Rl1*%
X138530000Y-83090000D02*
X135790000Y-83090000D01*
X137160000Y-79780000D02*
X137160000Y-83090000D01*
X135790000Y-83090000D02*
X135790000Y-89630000D01*
X138530000Y-89630000D02*
X138530000Y-83090000D01*
X135790000Y-89630000D02*
X138530000Y-89630000D01*
X137160000Y-92940000D02*
X137160000Y-89630000D01*
%TO.C,Rf1*%
X153130000Y-102970000D02*
X153130000Y-100230000D01*
X156440000Y-101600000D02*
X153130000Y-101600000D01*
X153130000Y-100230000D02*
X146590000Y-100230000D01*
X146590000Y-102970000D02*
X153130000Y-102970000D01*
X146590000Y-100230000D02*
X146590000Y-102970000D01*
X143280000Y-101600000D02*
X146590000Y-101600000D01*
%TO.C,J1*%
X184150000Y-115510000D02*
X191830000Y-115510000D01*
X182880000Y-118170000D02*
X181550000Y-118170000D01*
X191830000Y-118170000D02*
X191830000Y-115510000D01*
X184150000Y-118170000D02*
X184150000Y-115510000D01*
X181550000Y-118170000D02*
X181550000Y-116840000D01*
X184150000Y-118170000D02*
X191830000Y-118170000D01*
%TO.C,D2*%
X230960000Y-62430000D02*
X236400000Y-62430000D01*
X237420000Y-60960000D02*
X236400000Y-60960000D01*
X230960000Y-59490000D02*
X230960000Y-62430000D01*
X235620000Y-62430000D02*
X235620000Y-59490000D01*
X236400000Y-62430000D02*
X236400000Y-59490000D01*
X229940000Y-60960000D02*
X230960000Y-60960000D01*
X236400000Y-59490000D02*
X230960000Y-59490000D01*
X235380000Y-62430000D02*
X235380000Y-59490000D01*
X235500000Y-62430000D02*
X235500000Y-59490000D01*
%TO.C,U1*%
X207120000Y-46930000D02*
X205470000Y-46930000D01*
X201820000Y-46930000D02*
X201820000Y-57210000D01*
X207120000Y-57210000D02*
X207120000Y-46930000D01*
X203470000Y-46930000D02*
X201820000Y-46930000D01*
X201820000Y-57210000D02*
X207120000Y-57210000D01*
X203470000Y-46930000D02*
G75*
G03*
X205470000Y-46930000I1000000J0D01*
G01*
%TO.C,R5*%
X236950000Y-54710000D02*
X236950000Y-51970000D01*
X240260000Y-53340000D02*
X236950000Y-53340000D01*
X236950000Y-51970000D02*
X230410000Y-51970000D01*
X230410000Y-54710000D02*
X236950000Y-54710000D01*
X230410000Y-51970000D02*
X230410000Y-54710000D01*
X227100000Y-53340000D02*
X230410000Y-53340000D01*
%TO.C,R4*%
X191670000Y-87090000D02*
X194410000Y-87090000D01*
X193040000Y-90400000D02*
X193040000Y-87090000D01*
X194410000Y-87090000D02*
X194410000Y-80550000D01*
X191670000Y-80550000D02*
X191670000Y-87090000D01*
X194410000Y-80550000D02*
X191670000Y-80550000D01*
X193040000Y-77240000D02*
X193040000Y-80550000D01*
%TO.C,R3*%
X205010000Y-67210000D02*
X205010000Y-69950000D01*
X201700000Y-68580000D02*
X205010000Y-68580000D01*
X205010000Y-69950000D02*
X211550000Y-69950000D01*
X211550000Y-67210000D02*
X205010000Y-67210000D01*
X211550000Y-69950000D02*
X211550000Y-67210000D01*
X214860000Y-68580000D02*
X211550000Y-68580000D01*
%TO.C,R2*%
X173450000Y-69950000D02*
X173450000Y-67210000D01*
X176760000Y-68580000D02*
X173450000Y-68580000D01*
X173450000Y-67210000D02*
X166910000Y-67210000D01*
X166910000Y-69950000D02*
X173450000Y-69950000D01*
X166910000Y-67210000D02*
X166910000Y-69950000D01*
X163600000Y-68580000D02*
X166910000Y-68580000D01*
%TO.C,R1*%
X156110000Y-87090000D02*
X158850000Y-87090000D01*
X157480000Y-90400000D02*
X157480000Y-87090000D01*
X158850000Y-87090000D02*
X158850000Y-80550000D01*
X156110000Y-80550000D02*
X156110000Y-87090000D01*
X158850000Y-80550000D02*
X156110000Y-80550000D01*
X157480000Y-77240000D02*
X157480000Y-80550000D01*
%TO.C,CL1*%
X183050000Y-81580000D02*
X183050000Y-88820000D01*
X187620000Y-76830000D02*
X187620000Y-78330000D01*
X187040000Y-80830000D02*
X187790000Y-81580000D01*
X187790000Y-88820000D02*
X183050000Y-88820000D01*
X187790000Y-78580000D02*
X183050000Y-78580000D01*
X187790000Y-80080000D02*
X187040000Y-80830000D01*
X187790000Y-78580000D02*
X187790000Y-80080000D01*
X183050000Y-80080000D02*
X183800000Y-80830000D01*
X183800000Y-80830000D02*
X183050000Y-81580000D01*
X187790000Y-81580000D02*
X187790000Y-88820000D01*
X185420000Y-89960000D02*
X185420000Y-88820000D01*
X183050000Y-78580000D02*
X183050000Y-80080000D01*
X188370000Y-77580000D02*
X186870000Y-77580000D01*
X185420000Y-77440000D02*
X185420000Y-78580000D01*
%TO.C,CH1*%
X142540000Y-70950000D02*
X149780000Y-70950000D01*
X137790000Y-66380000D02*
X139290000Y-66380000D01*
X141790000Y-66960000D02*
X142540000Y-66210000D01*
X149780000Y-66210000D02*
X149780000Y-70950000D01*
X139540000Y-66210000D02*
X139540000Y-70950000D01*
X141040000Y-66210000D02*
X141790000Y-66960000D01*
X139540000Y-66210000D02*
X141040000Y-66210000D01*
X141040000Y-70950000D02*
X141790000Y-70200000D01*
X141790000Y-70200000D02*
X142540000Y-70950000D01*
X142540000Y-66210000D02*
X149780000Y-66210000D01*
X150920000Y-68580000D02*
X149780000Y-68580000D01*
X139540000Y-70950000D02*
X141040000Y-70950000D01*
X138540000Y-65630000D02*
X138540000Y-67130000D01*
X138400000Y-68580000D02*
X139540000Y-68580000D01*
%TO.C,D1*%
X231860000Y-67110000D02*
X231860000Y-70050000D01*
X231980000Y-67110000D02*
X231980000Y-70050000D01*
X230960000Y-70050000D02*
X236400000Y-70050000D01*
X237420000Y-68580000D02*
X236400000Y-68580000D01*
X230960000Y-67110000D02*
X230960000Y-70050000D01*
X231740000Y-67110000D02*
X231740000Y-70050000D01*
X236400000Y-70050000D02*
X236400000Y-67110000D01*
X229940000Y-68580000D02*
X230960000Y-68580000D01*
X236400000Y-67110000D02*
X230960000Y-67110000D01*
%TD*%
M02*
