%TF.GenerationSoftware,KiCad,Pcbnew,(6.0.4)*%
%TF.CreationDate,2022-04-14T13:38:33-04:00*%
%TF.ProjectId,pcb,7063622e-6b69-4636-9164-5f7063625858,rev?*%
%TF.SameCoordinates,Original*%
%TF.FileFunction,Copper,L1,Top*%
%TF.FilePolarity,Positive*%
%FSLAX46Y46*%
G04 Gerber Fmt 4.6, Leading zero omitted, Abs format (unit mm)*
G04 Created by KiCad (PCBNEW (6.0.4)) date 2022-04-14 13:38:33*
%MOMM*%
%LPD*%
G01*
G04 APERTURE LIST*
%TA.AperFunction,ComponentPad*%
%ADD10C,1.760000*%
%TD*%
%TA.AperFunction,ComponentPad*%
%ADD11R,1.750000X1.750000*%
%TD*%
%TA.AperFunction,ComponentPad*%
%ADD12C,1.600000*%
%TD*%
%TA.AperFunction,ComponentPad*%
%ADD13O,1.600000X1.600000*%
%TD*%
%TA.AperFunction,ComponentPad*%
%ADD14R,1.700000X1.700000*%
%TD*%
%TA.AperFunction,ComponentPad*%
%ADD15O,1.700000X1.700000*%
%TD*%
%TA.AperFunction,ComponentPad*%
%ADD16O,2.200000X2.200000*%
%TD*%
%TA.AperFunction,ComponentPad*%
%ADD17R,2.200000X2.200000*%
%TD*%
%TA.AperFunction,ComponentPad*%
%ADD18R,1.600000X1.600000*%
%TD*%
%TA.AperFunction,ComponentPad*%
%ADD19R,2.000000X2.000000*%
%TD*%
%TA.AperFunction,ComponentPad*%
%ADD20O,2.000000X2.000000*%
%TD*%
%TA.AperFunction,Conductor*%
%ADD21C,0.250000*%
%TD*%
G04 APERTURE END LIST*
D10*
%TO.P,U2,2*%
%TO.N,Net-(CL1-Pad2)*%
X147320000Y-93980000D03*
%TO.P,U2,3*%
%TO.N,Net-(Rf1-Pad2)*%
X149430000Y-93980000D03*
%TO.P,U2,4*%
%TO.N,Net-(CL1-Pad2)*%
X149430000Y-91440000D03*
D11*
%TO.P,U2,1*%
%TO.N,Net-(CH1-Pad1)*%
X147320000Y-91440000D03*
%TD*%
D12*
%TO.P,Rl1,1*%
%TO.N,Net-(J1-Pad1)*%
X137160000Y-93980000D03*
D13*
%TO.P,Rl1,2*%
%TO.N,Net-(CH1-Pad1)*%
X137160000Y-78740000D03*
%TD*%
D12*
%TO.P,Rf1,1*%
%TO.N,Net-(J1-Pad1)*%
X142240000Y-101600000D03*
D13*
%TO.P,Rf1,2*%
%TO.N,Net-(Rf1-Pad2)*%
X157480000Y-101600000D03*
%TD*%
D14*
%TO.P,J1,5V,Pin_1*%
%TO.N,Net-(J1-Pad1)*%
X182880000Y-116840000D03*
D15*
%TO.P,J1,GND,Pin_2*%
%TO.N,Net-(CL1-Pad2)*%
X185420000Y-116840000D03*
%TO.P,J1,3.3V,Pin_3*%
%TO.N,Net-(D1-Pad1)*%
X187960000Y-116840000D03*
%TO.P,J1,Out,Pin_4*%
%TO.N,Net-(D1-Pad2)*%
X190500000Y-116840000D03*
%TD*%
D16*
%TO.P,D2,2,A*%
%TO.N,Net-(CL1-Pad2)*%
X228600000Y-60960000D03*
D17*
%TO.P,D2,1,K*%
%TO.N,Net-(D1-Pad2)*%
X238760000Y-60960000D03*
%TD*%
D18*
%TO.P,U1,1*%
%TO.N,Net-(R3-Pad1)*%
X200660000Y-48260000D03*
D13*
%TO.P,U1,2,-*%
%TO.N,Net-(R3-Pad2)*%
X200660000Y-50800000D03*
%TO.P,U1,3,+*%
%TO.N,Net-(CL1-Pad1)*%
X200660000Y-53340000D03*
%TO.P,U1,4*%
%TO.N,N/C*%
X200660000Y-55880000D03*
%TO.P,U1,5*%
X208280000Y-55880000D03*
%TO.P,U1,6*%
X208280000Y-53340000D03*
%TO.P,U1,7*%
X208280000Y-50800000D03*
%TO.P,U1,8*%
X208280000Y-48260000D03*
%TD*%
D12*
%TO.P,R5,1*%
%TO.N,Net-(R3-Pad1)*%
X226060000Y-53340000D03*
D13*
%TO.P,R5,2*%
%TO.N,Net-(D1-Pad2)*%
X241300000Y-53340000D03*
%TD*%
D12*
%TO.P,R4,1*%
%TO.N,Net-(R3-Pad2)*%
X193040000Y-76200000D03*
D13*
%TO.P,R4,2*%
%TO.N,Net-(CL1-Pad2)*%
X193040000Y-91440000D03*
%TD*%
D12*
%TO.P,R3,1*%
%TO.N,Net-(R3-Pad1)*%
X215900000Y-68580000D03*
D13*
%TO.P,R3,2*%
%TO.N,Net-(R3-Pad2)*%
X200660000Y-68580000D03*
%TD*%
D12*
%TO.P,R2,1*%
%TO.N,Net-(CH1-Pad2)*%
X162560000Y-68580000D03*
D13*
%TO.P,R2,2*%
%TO.N,Net-(CL1-Pad1)*%
X177800000Y-68580000D03*
%TD*%
D12*
%TO.P,R1,1*%
%TO.N,Net-(CH1-Pad2)*%
X157480000Y-76200000D03*
D13*
%TO.P,R1,2*%
%TO.N,Net-(CL1-Pad2)*%
X157480000Y-91440000D03*
%TD*%
D19*
%TO.P,CL1,1*%
%TO.N,Net-(CL1-Pad1)*%
X185420000Y-76200000D03*
D20*
%TO.P,CL1,2*%
%TO.N,Net-(CL1-Pad2)*%
X185420000Y-91200000D03*
%TD*%
D19*
%TO.P,CH1,1*%
%TO.N,Net-(CH1-Pad1)*%
X137160000Y-68580000D03*
D20*
%TO.P,CH1,2*%
%TO.N,Net-(CH1-Pad2)*%
X152160000Y-68580000D03*
%TD*%
D17*
%TO.P,D1,1,K*%
%TO.N,Net-(D1-Pad1)*%
X228600000Y-68580000D03*
D16*
%TO.P,D1,2,A*%
%TO.N,Net-(D1-Pad2)*%
X238760000Y-68580000D03*
%TD*%
D21*
%TO.N,Net-(J1-Pad1)*%
X142240000Y-101600000D02*
X157480000Y-116840000D01*
X157480000Y-116840000D02*
X182880000Y-116840000D01*
%TO.N,Net-(CH1-Pad1)*%
X137160000Y-68580000D02*
X137160000Y-78740000D01*
%TO.N,Net-(CL1-Pad2)*%
X147320000Y-93980000D02*
X149430000Y-91870000D01*
X149430000Y-91870000D02*
X149430000Y-91440000D01*
X149430000Y-91440000D02*
X157480000Y-91440000D01*
%TO.N,Net-(CH1-Pad1)*%
X137160000Y-78740000D02*
X139700000Y-78740000D01*
X139700000Y-78740000D02*
X147320000Y-86360000D01*
X147320000Y-86360000D02*
X147320000Y-91440000D01*
%TO.N,Net-(J1-Pad1)*%
X137160000Y-99060000D02*
X139700000Y-101600000D01*
X137160000Y-93980000D02*
X137160000Y-99060000D01*
X139700000Y-101600000D02*
X142240000Y-101600000D01*
%TO.N,Net-(Rf1-Pad2)*%
X154940000Y-93980000D02*
X157480000Y-96520000D01*
X149430000Y-93980000D02*
X154940000Y-93980000D01*
X157480000Y-96520000D02*
X157480000Y-101600000D01*
%TO.N,Net-(D1-Pad1)*%
X228600000Y-68580000D02*
X228600000Y-88900000D01*
%TO.N,Net-(CL1-Pad2)*%
X228600000Y-60960000D02*
X198120000Y-91440000D01*
X198120000Y-91440000D02*
X193040000Y-91440000D01*
%TO.N,Net-(D1-Pad2)*%
X238760000Y-68580000D02*
X238760000Y-81280000D01*
X238760000Y-60960000D02*
X238760000Y-68580000D01*
X238760000Y-60960000D02*
X241300000Y-58420000D01*
X241300000Y-58420000D02*
X241300000Y-53340000D01*
%TO.N,Net-(CL1-Pad1)*%
X185420000Y-63155260D02*
X195235260Y-53340000D01*
X195235260Y-53340000D02*
X200660000Y-53340000D01*
%TO.N,Net-(R3-Pad2)*%
X203200000Y-53340000D02*
X203200000Y-66040000D01*
X200660000Y-50800000D02*
X203200000Y-53340000D01*
X203200000Y-66040000D02*
X200660000Y-68580000D01*
%TO.N,Net-(R3-Pad1)*%
X226060000Y-53340000D02*
X222395489Y-49675489D01*
X222395489Y-49675489D02*
X202075489Y-49675489D01*
X202075489Y-49675489D02*
X200660000Y-48260000D01*
%TO.N,Net-(CL1-Pad1)*%
X185420000Y-71120000D02*
X185420000Y-63155260D01*
%TO.N,Net-(D1-Pad1)*%
X228600000Y-88900000D02*
X203200000Y-114300000D01*
X188838990Y-116840000D02*
X187960000Y-116840000D01*
X203200000Y-114300000D02*
X191378990Y-114300000D01*
X191378990Y-114300000D02*
X188838990Y-116840000D01*
%TO.N,Net-(CL1-Pad2)*%
X193040000Y-91440000D02*
X185660000Y-91440000D01*
X185660000Y-91440000D02*
X185420000Y-91200000D01*
%TO.N,Net-(D1-Pad2)*%
X205740000Y-114300000D02*
X203200000Y-116840000D01*
X203200000Y-116840000D02*
X190500000Y-116840000D01*
X238760000Y-81280000D02*
X205740000Y-114300000D01*
%TO.N,Net-(R3-Pad2)*%
X200660000Y-68580000D02*
X193040000Y-76200000D01*
%TO.N,Net-(R3-Pad1)*%
X226060000Y-53340000D02*
X226060000Y-58420000D01*
X226060000Y-58420000D02*
X215900000Y-68580000D01*
%TO.N,Net-(CL1-Pad1)*%
X182880000Y-68580000D02*
X185420000Y-71120000D01*
X177800000Y-68580000D02*
X182880000Y-68580000D01*
X185420000Y-71120000D02*
X185420000Y-76200000D01*
%TO.N,Net-(CH1-Pad2)*%
X152160000Y-68580000D02*
X152160000Y-70880000D01*
X152160000Y-70880000D02*
X157480000Y-76200000D01*
X152160000Y-68580000D02*
X162560000Y-68580000D01*
%TO.N,Net-(CL1-Pad2)*%
X185420000Y-101600000D02*
X185420000Y-116840000D01*
X157480000Y-91440000D02*
X175260000Y-91440000D01*
X175260000Y-91440000D02*
X185420000Y-101600000D01*
X157480000Y-91440000D02*
X185180000Y-91440000D01*
X185180000Y-91440000D02*
X185420000Y-91200000D01*
%TD*%
%TA.AperFunction,NonConductor*%
G36*
X241242121Y-40660002D02*
G01*
X241288614Y-40713658D01*
X241300000Y-40766000D01*
X241300000Y-51911044D01*
X241279998Y-51979165D01*
X241226342Y-52025658D01*
X241184982Y-52036565D01*
X241158533Y-52038879D01*
X241077394Y-52045977D01*
X241077389Y-52045978D01*
X241071913Y-52046457D01*
X241066600Y-52047881D01*
X241066598Y-52047881D01*
X240856067Y-52104293D01*
X240856065Y-52104294D01*
X240850757Y-52105716D01*
X240845776Y-52108039D01*
X240845775Y-52108039D01*
X240648238Y-52200151D01*
X240648233Y-52200154D01*
X240643251Y-52202477D01*
X240538389Y-52275902D01*
X240460211Y-52330643D01*
X240460208Y-52330645D01*
X240455700Y-52333802D01*
X240293802Y-52495700D01*
X240162477Y-52683251D01*
X240160154Y-52688233D01*
X240160151Y-52688238D01*
X240075456Y-52869869D01*
X240065716Y-52890757D01*
X240064294Y-52896065D01*
X240064293Y-52896067D01*
X240007883Y-53106591D01*
X240006457Y-53111913D01*
X239986502Y-53340000D01*
X240006457Y-53568087D01*
X240007881Y-53573400D01*
X240007881Y-53573402D01*
X240029637Y-53654594D01*
X240065716Y-53789243D01*
X240068039Y-53794224D01*
X240068039Y-53794225D01*
X240160151Y-53991762D01*
X240160154Y-53991767D01*
X240162477Y-53996749D01*
X240293802Y-54184300D01*
X240455700Y-54346198D01*
X240460208Y-54349355D01*
X240460211Y-54349357D01*
X240612771Y-54456181D01*
X240657099Y-54511638D01*
X240666500Y-54559394D01*
X240666500Y-58105405D01*
X240646498Y-58173526D01*
X240629595Y-58194500D01*
X239509500Y-59314595D01*
X239447188Y-59348621D01*
X239420405Y-59351500D01*
X237611866Y-59351500D01*
X237549684Y-59358255D01*
X237413295Y-59409385D01*
X237296739Y-59496739D01*
X237209385Y-59613295D01*
X237158255Y-59749684D01*
X237151500Y-59811866D01*
X237151500Y-62108134D01*
X237158255Y-62170316D01*
X237209385Y-62306705D01*
X237296739Y-62423261D01*
X237413295Y-62510615D01*
X237549684Y-62561745D01*
X237611866Y-62568500D01*
X238000500Y-62568500D01*
X238068621Y-62588502D01*
X238115114Y-62642158D01*
X238126500Y-62694500D01*
X238126500Y-67017185D01*
X238106498Y-67085306D01*
X238048720Y-67133593D01*
X238033881Y-67139740D01*
X238027498Y-67142384D01*
X237811624Y-67274672D01*
X237619102Y-67439102D01*
X237454672Y-67631624D01*
X237322384Y-67847498D01*
X237320491Y-67852068D01*
X237320489Y-67852072D01*
X237256066Y-68007604D01*
X237225495Y-68081409D01*
X237215026Y-68125016D01*
X237192657Y-68218192D01*
X237166391Y-68327597D01*
X237146526Y-68580000D01*
X237166391Y-68832403D01*
X237225495Y-69078591D01*
X237227388Y-69083162D01*
X237227389Y-69083164D01*
X237301627Y-69262389D01*
X237322384Y-69312502D01*
X237454672Y-69528376D01*
X237619102Y-69720898D01*
X237811624Y-69885328D01*
X238027498Y-70017616D01*
X238032073Y-70019511D01*
X238032075Y-70019512D01*
X238048720Y-70026407D01*
X238104000Y-70070956D01*
X238126500Y-70142815D01*
X238126500Y-80965406D01*
X238106498Y-81033527D01*
X238089595Y-81054501D01*
X205348637Y-113795458D01*
X202974500Y-116169595D01*
X202912188Y-116203621D01*
X202885405Y-116206500D01*
X191776805Y-116206500D01*
X191708684Y-116186498D01*
X191671013Y-116148940D01*
X191582822Y-116012617D01*
X191582820Y-116012614D01*
X191580014Y-116008277D01*
X191429670Y-115843051D01*
X191425619Y-115839852D01*
X191425615Y-115839848D01*
X191258414Y-115707800D01*
X191258410Y-115707798D01*
X191254359Y-115704598D01*
X191153549Y-115648948D01*
X191103580Y-115598516D01*
X191088808Y-115529073D01*
X191113924Y-115462668D01*
X191125349Y-115449545D01*
X191604489Y-114970405D01*
X191666801Y-114936379D01*
X191693584Y-114933500D01*
X203121233Y-114933500D01*
X203132416Y-114934027D01*
X203139909Y-114935702D01*
X203147835Y-114935453D01*
X203147836Y-114935453D01*
X203207986Y-114933562D01*
X203211945Y-114933500D01*
X203239856Y-114933500D01*
X203243791Y-114933003D01*
X203243856Y-114932995D01*
X203255693Y-114932062D01*
X203287951Y-114931048D01*
X203291970Y-114930922D01*
X203299889Y-114930673D01*
X203319343Y-114925021D01*
X203338700Y-114921013D01*
X203350930Y-114919468D01*
X203350931Y-114919468D01*
X203358797Y-114918474D01*
X203366168Y-114915555D01*
X203366170Y-114915555D01*
X203399912Y-114902196D01*
X203411142Y-114898351D01*
X203445983Y-114888229D01*
X203445984Y-114888229D01*
X203453593Y-114886018D01*
X203460412Y-114881985D01*
X203460417Y-114881983D01*
X203471028Y-114875707D01*
X203488776Y-114867012D01*
X203507617Y-114859552D01*
X203543387Y-114833564D01*
X203553307Y-114827048D01*
X203584535Y-114808580D01*
X203584538Y-114808578D01*
X203591362Y-114804542D01*
X203605683Y-114790221D01*
X203620717Y-114777380D01*
X203630694Y-114770131D01*
X203637107Y-114765472D01*
X203665298Y-114731395D01*
X203673288Y-114722616D01*
X228992247Y-89403657D01*
X229000537Y-89396113D01*
X229007018Y-89392000D01*
X229053659Y-89342332D01*
X229056413Y-89339491D01*
X229076134Y-89319770D01*
X229078612Y-89316575D01*
X229086318Y-89307553D01*
X229111158Y-89281101D01*
X229116586Y-89275321D01*
X229126346Y-89257568D01*
X229137199Y-89241045D01*
X229144753Y-89231306D01*
X229149613Y-89225041D01*
X229167176Y-89184457D01*
X229172383Y-89173827D01*
X229193695Y-89135060D01*
X229195666Y-89127383D01*
X229195668Y-89127378D01*
X229198732Y-89115442D01*
X229205138Y-89096730D01*
X229210034Y-89085417D01*
X229213181Y-89078145D01*
X229220097Y-89034481D01*
X229222504Y-89022860D01*
X229231528Y-88987711D01*
X229231528Y-88987710D01*
X229233500Y-88980030D01*
X229233500Y-88959769D01*
X229235051Y-88940058D01*
X229236979Y-88927885D01*
X229238219Y-88920057D01*
X229234059Y-88876046D01*
X229233500Y-88864189D01*
X229233500Y-70314500D01*
X229253502Y-70246379D01*
X229307158Y-70199886D01*
X229359500Y-70188500D01*
X229748134Y-70188500D01*
X229810316Y-70181745D01*
X229946705Y-70130615D01*
X230063261Y-70043261D01*
X230150615Y-69926705D01*
X230201745Y-69790316D01*
X230208500Y-69728134D01*
X230208500Y-67431866D01*
X230201745Y-67369684D01*
X230150615Y-67233295D01*
X230063261Y-67116739D01*
X229946705Y-67029385D01*
X229810316Y-66978255D01*
X229748134Y-66971500D01*
X227451866Y-66971500D01*
X227389684Y-66978255D01*
X227253295Y-67029385D01*
X227136739Y-67116739D01*
X227049385Y-67233295D01*
X226998255Y-67369684D01*
X226991500Y-67431866D01*
X226991500Y-69728134D01*
X226998255Y-69790316D01*
X227049385Y-69926705D01*
X227136739Y-70043261D01*
X227253295Y-70130615D01*
X227389684Y-70181745D01*
X227451866Y-70188500D01*
X227840500Y-70188500D01*
X227908621Y-70208502D01*
X227955114Y-70262158D01*
X227966500Y-70314500D01*
X227966500Y-88585405D01*
X227946498Y-88653526D01*
X227929595Y-88674500D01*
X202974500Y-113629595D01*
X202912188Y-113663621D01*
X202885405Y-113666500D01*
X191457753Y-113666500D01*
X191446569Y-113665973D01*
X191439081Y-113664299D01*
X191431158Y-113664548D01*
X191371023Y-113666438D01*
X191367065Y-113666500D01*
X191339134Y-113666500D01*
X191335219Y-113666995D01*
X191335215Y-113666995D01*
X191335157Y-113667003D01*
X191335128Y-113667006D01*
X191323286Y-113667939D01*
X191279100Y-113669327D01*
X191261734Y-113674372D01*
X191259648Y-113674978D01*
X191240296Y-113678986D01*
X191228058Y-113680532D01*
X191228056Y-113680533D01*
X191220193Y-113681526D01*
X191179076Y-113697806D01*
X191167875Y-113701641D01*
X191125396Y-113713982D01*
X191118577Y-113718015D01*
X191118572Y-113718017D01*
X191107961Y-113724293D01*
X191090211Y-113732990D01*
X191071373Y-113740448D01*
X191064957Y-113745109D01*
X191064956Y-113745110D01*
X191035615Y-113766428D01*
X191025691Y-113772947D01*
X190994450Y-113791422D01*
X190994445Y-113791426D01*
X190987627Y-113795458D01*
X190973303Y-113809782D01*
X190958271Y-113822621D01*
X190941883Y-113834528D01*
X190913702Y-113868593D01*
X190905712Y-113877373D01*
X188997052Y-115786033D01*
X188934740Y-115820059D01*
X188863925Y-115814994D01*
X188829864Y-115795819D01*
X188718415Y-115707801D01*
X188718413Y-115707800D01*
X188714359Y-115704598D01*
X188709831Y-115702098D01*
X188657945Y-115673456D01*
X188518789Y-115596638D01*
X188513920Y-115594914D01*
X188513916Y-115594912D01*
X188313087Y-115523795D01*
X188313083Y-115523794D01*
X188308212Y-115522069D01*
X188303119Y-115521162D01*
X188303116Y-115521161D01*
X188093373Y-115483800D01*
X188093367Y-115483799D01*
X188088284Y-115482894D01*
X188014452Y-115481992D01*
X187870081Y-115480228D01*
X187870079Y-115480228D01*
X187864911Y-115480165D01*
X187644091Y-115513955D01*
X187431756Y-115583357D01*
X187402636Y-115598516D01*
X187257975Y-115673822D01*
X187233607Y-115686507D01*
X187229474Y-115689610D01*
X187229471Y-115689612D01*
X187062478Y-115814994D01*
X187054965Y-115820635D01*
X187051393Y-115824373D01*
X186943729Y-115937037D01*
X186900629Y-115982138D01*
X186793201Y-116139621D01*
X186738293Y-116184621D01*
X186667768Y-116192792D01*
X186604021Y-116161538D01*
X186583324Y-116137054D01*
X186502822Y-116012617D01*
X186502820Y-116012614D01*
X186500014Y-116008277D01*
X186349670Y-115843051D01*
X186345619Y-115839852D01*
X186345615Y-115839848D01*
X186178414Y-115707800D01*
X186178410Y-115707798D01*
X186174359Y-115704598D01*
X186169835Y-115702101D01*
X186169831Y-115702098D01*
X186118608Y-115673822D01*
X186068636Y-115623390D01*
X186053500Y-115563513D01*
X186053500Y-101678767D01*
X186054027Y-101667584D01*
X186055702Y-101660091D01*
X186053986Y-101605475D01*
X186053562Y-101592001D01*
X186053500Y-101588043D01*
X186053500Y-101560144D01*
X186052996Y-101556153D01*
X186052063Y-101544311D01*
X186050923Y-101508036D01*
X186050674Y-101500111D01*
X186048462Y-101492497D01*
X186048461Y-101492492D01*
X186045023Y-101480659D01*
X186041012Y-101461295D01*
X186039467Y-101449064D01*
X186038474Y-101441203D01*
X186035557Y-101433836D01*
X186035556Y-101433831D01*
X186022198Y-101400092D01*
X186018354Y-101388865D01*
X186015021Y-101377393D01*
X186006018Y-101346407D01*
X185995707Y-101328972D01*
X185987012Y-101311224D01*
X185979552Y-101292383D01*
X185953564Y-101256613D01*
X185947048Y-101246693D01*
X185928580Y-101215465D01*
X185928578Y-101215462D01*
X185924542Y-101208638D01*
X185910221Y-101194317D01*
X185897380Y-101179283D01*
X185890131Y-101169306D01*
X185885472Y-101162893D01*
X185851395Y-101134702D01*
X185842616Y-101126712D01*
X177004500Y-92288595D01*
X176970474Y-92226283D01*
X176975539Y-92155468D01*
X177018086Y-92098632D01*
X177084606Y-92073821D01*
X177093595Y-92073500D01*
X184124143Y-92073500D01*
X184192264Y-92093502D01*
X184219954Y-92117669D01*
X184346823Y-92266213D01*
X184350031Y-92269969D01*
X184530584Y-92424176D01*
X184534792Y-92426755D01*
X184534798Y-92426759D01*
X184661115Y-92504166D01*
X184733037Y-92548240D01*
X184737607Y-92550133D01*
X184737611Y-92550135D01*
X184946730Y-92636754D01*
X184952406Y-92639105D01*
X185032609Y-92658360D01*
X185178476Y-92693380D01*
X185178482Y-92693381D01*
X185183289Y-92694535D01*
X185420000Y-92713165D01*
X185656711Y-92694535D01*
X185661518Y-92693381D01*
X185661524Y-92693380D01*
X185807391Y-92658360D01*
X185887594Y-92639105D01*
X185893270Y-92636754D01*
X186102389Y-92550135D01*
X186102393Y-92550133D01*
X186106963Y-92548240D01*
X186178885Y-92504166D01*
X186305202Y-92426759D01*
X186305208Y-92426755D01*
X186309416Y-92424176D01*
X186489969Y-92269969D01*
X186493177Y-92266213D01*
X186620046Y-92117669D01*
X186679497Y-92078860D01*
X186715857Y-92073500D01*
X191820606Y-92073500D01*
X191888727Y-92093502D01*
X191923819Y-92127229D01*
X192030643Y-92279789D01*
X192033802Y-92284300D01*
X192195700Y-92446198D01*
X192200208Y-92449355D01*
X192200211Y-92449357D01*
X192273282Y-92500522D01*
X192383251Y-92577523D01*
X192388233Y-92579846D01*
X192388238Y-92579849D01*
X192583888Y-92671081D01*
X192590757Y-92674284D01*
X192596065Y-92675706D01*
X192596067Y-92675707D01*
X192806598Y-92732119D01*
X192806600Y-92732119D01*
X192811913Y-92733543D01*
X193040000Y-92753498D01*
X193268087Y-92733543D01*
X193273400Y-92732119D01*
X193273402Y-92732119D01*
X193483933Y-92675707D01*
X193483935Y-92675706D01*
X193489243Y-92674284D01*
X193496112Y-92671081D01*
X193691762Y-92579849D01*
X193691767Y-92579846D01*
X193696749Y-92577523D01*
X193806718Y-92500522D01*
X193879789Y-92449357D01*
X193879792Y-92449355D01*
X193884300Y-92446198D01*
X194046198Y-92284300D01*
X194049357Y-92279789D01*
X194156181Y-92127229D01*
X194211638Y-92082901D01*
X194259394Y-92073500D01*
X198041233Y-92073500D01*
X198052416Y-92074027D01*
X198059909Y-92075702D01*
X198067835Y-92075453D01*
X198067836Y-92075453D01*
X198127986Y-92073562D01*
X198131945Y-92073500D01*
X198159856Y-92073500D01*
X198163791Y-92073003D01*
X198163856Y-92072995D01*
X198175693Y-92072062D01*
X198207951Y-92071048D01*
X198211970Y-92070922D01*
X198219889Y-92070673D01*
X198239343Y-92065021D01*
X198258700Y-92061013D01*
X198270930Y-92059468D01*
X198270931Y-92059468D01*
X198278797Y-92058474D01*
X198286168Y-92055555D01*
X198286170Y-92055555D01*
X198319912Y-92042196D01*
X198331142Y-92038351D01*
X198365983Y-92028229D01*
X198365984Y-92028229D01*
X198373593Y-92026018D01*
X198380412Y-92021985D01*
X198380417Y-92021983D01*
X198391028Y-92015707D01*
X198408776Y-92007012D01*
X198427617Y-91999552D01*
X198463387Y-91973564D01*
X198473307Y-91967048D01*
X198504535Y-91948580D01*
X198504538Y-91948578D01*
X198511362Y-91944542D01*
X198525683Y-91930221D01*
X198540717Y-91917380D01*
X198550694Y-91910131D01*
X198557107Y-91905472D01*
X198585298Y-91871395D01*
X198593288Y-91862616D01*
X227942875Y-62513029D01*
X228005187Y-62479003D01*
X228080188Y-62485715D01*
X228101409Y-62494505D01*
X228168513Y-62510615D01*
X228342784Y-62552454D01*
X228342790Y-62552455D01*
X228347597Y-62553609D01*
X228600000Y-62573474D01*
X228852403Y-62553609D01*
X228857210Y-62552455D01*
X228857216Y-62552454D01*
X229031487Y-62510615D01*
X229098591Y-62494505D01*
X229119812Y-62485715D01*
X229327928Y-62399511D01*
X229327932Y-62399509D01*
X229332502Y-62397616D01*
X229548376Y-62265328D01*
X229740898Y-62100898D01*
X229905328Y-61908376D01*
X230037616Y-61692502D01*
X230093498Y-61557592D01*
X230132611Y-61463164D01*
X230132612Y-61463162D01*
X230134505Y-61458591D01*
X230193609Y-61212403D01*
X230213474Y-60960000D01*
X230193609Y-60707597D01*
X230134505Y-60461409D01*
X230067479Y-60299594D01*
X230039511Y-60232072D01*
X230039509Y-60232068D01*
X230037616Y-60227498D01*
X229905328Y-60011624D01*
X229740898Y-59819102D01*
X229548376Y-59654672D01*
X229332502Y-59522384D01*
X229327932Y-59520491D01*
X229327928Y-59520489D01*
X229103164Y-59427389D01*
X229103162Y-59427388D01*
X229098591Y-59425495D01*
X229013968Y-59405179D01*
X228857216Y-59367546D01*
X228857210Y-59367545D01*
X228852403Y-59366391D01*
X228600000Y-59346526D01*
X228347597Y-59366391D01*
X228342790Y-59367545D01*
X228342784Y-59367546D01*
X228186032Y-59405179D01*
X228101409Y-59425495D01*
X228096838Y-59427388D01*
X228096836Y-59427389D01*
X227872072Y-59520489D01*
X227872068Y-59520491D01*
X227867498Y-59522384D01*
X227651624Y-59654672D01*
X227459102Y-59819102D01*
X227294672Y-60011624D01*
X227162384Y-60227498D01*
X227160491Y-60232068D01*
X227160489Y-60232072D01*
X227132521Y-60299594D01*
X227065495Y-60461409D01*
X227006391Y-60707597D01*
X226986526Y-60960000D01*
X227006391Y-61212403D01*
X227065495Y-61458591D01*
X227067385Y-61463154D01*
X227067388Y-61463163D01*
X227074285Y-61479815D01*
X227081872Y-61550405D01*
X227046970Y-61617125D01*
X197894500Y-90769595D01*
X197832188Y-90803621D01*
X197805405Y-90806500D01*
X194259394Y-90806500D01*
X194191273Y-90786498D01*
X194156181Y-90752771D01*
X194049357Y-90600211D01*
X194049355Y-90600208D01*
X194046198Y-90595700D01*
X193884300Y-90433802D01*
X193879792Y-90430645D01*
X193879789Y-90430643D01*
X193714345Y-90314798D01*
X193696749Y-90302477D01*
X193691767Y-90300154D01*
X193691762Y-90300151D01*
X193494225Y-90208039D01*
X193494224Y-90208039D01*
X193489243Y-90205716D01*
X193483935Y-90204294D01*
X193483933Y-90204293D01*
X193273402Y-90147881D01*
X193273400Y-90147881D01*
X193268087Y-90146457D01*
X193040000Y-90126502D01*
X192811913Y-90146457D01*
X192806600Y-90147881D01*
X192806598Y-90147881D01*
X192596067Y-90204293D01*
X192596065Y-90204294D01*
X192590757Y-90205716D01*
X192585776Y-90208039D01*
X192585775Y-90208039D01*
X192388238Y-90300151D01*
X192388233Y-90300154D01*
X192383251Y-90302477D01*
X192365655Y-90314798D01*
X192200211Y-90430643D01*
X192200208Y-90430645D01*
X192195700Y-90433802D01*
X192033802Y-90595700D01*
X192030645Y-90600208D01*
X192030643Y-90600211D01*
X191923819Y-90752771D01*
X191868362Y-90797099D01*
X191820606Y-90806500D01*
X186973986Y-90806500D01*
X186905865Y-90786498D01*
X186857577Y-90728718D01*
X186770135Y-90517611D01*
X186770133Y-90517607D01*
X186768240Y-90513037D01*
X186722073Y-90437699D01*
X186646759Y-90314798D01*
X186646755Y-90314792D01*
X186644176Y-90310584D01*
X186489969Y-90130031D01*
X186309416Y-89975824D01*
X186305208Y-89973245D01*
X186305202Y-89973241D01*
X186111183Y-89854346D01*
X186106963Y-89851760D01*
X186102393Y-89849867D01*
X186102389Y-89849865D01*
X185892167Y-89762789D01*
X185892165Y-89762788D01*
X185887594Y-89760895D01*
X185807391Y-89741640D01*
X185661524Y-89706620D01*
X185661518Y-89706619D01*
X185656711Y-89705465D01*
X185420000Y-89686835D01*
X185183289Y-89705465D01*
X185178482Y-89706619D01*
X185178476Y-89706620D01*
X185032609Y-89741640D01*
X184952406Y-89760895D01*
X184947835Y-89762788D01*
X184947833Y-89762789D01*
X184737611Y-89849865D01*
X184737607Y-89849867D01*
X184733037Y-89851760D01*
X184728817Y-89854346D01*
X184534798Y-89973241D01*
X184534792Y-89973245D01*
X184530584Y-89975824D01*
X184350031Y-90130031D01*
X184195824Y-90310584D01*
X184193245Y-90314792D01*
X184193241Y-90314798D01*
X184117927Y-90437699D01*
X184071760Y-90513037D01*
X184069867Y-90517607D01*
X184069865Y-90517611D01*
X183982423Y-90728718D01*
X183937875Y-90783999D01*
X183866014Y-90806500D01*
X175319776Y-90806500D01*
X175300065Y-90804949D01*
X175291681Y-90803621D01*
X175280057Y-90801780D01*
X175272165Y-90802526D01*
X175236039Y-90805941D01*
X175224181Y-90806500D01*
X158699394Y-90806500D01*
X158631273Y-90786498D01*
X158596181Y-90752771D01*
X158489357Y-90600211D01*
X158489355Y-90600208D01*
X158486198Y-90595700D01*
X158324300Y-90433802D01*
X158319792Y-90430645D01*
X158319789Y-90430643D01*
X158154345Y-90314798D01*
X158136749Y-90302477D01*
X158131767Y-90300154D01*
X158131762Y-90300151D01*
X157934225Y-90208039D01*
X157934224Y-90208039D01*
X157929243Y-90205716D01*
X157923935Y-90204294D01*
X157923933Y-90204293D01*
X157713402Y-90147881D01*
X157713400Y-90147881D01*
X157708087Y-90146457D01*
X157480000Y-90126502D01*
X157251913Y-90146457D01*
X157246600Y-90147881D01*
X157246598Y-90147881D01*
X157036067Y-90204293D01*
X157036065Y-90204294D01*
X157030757Y-90205716D01*
X157025776Y-90208039D01*
X157025775Y-90208039D01*
X156828238Y-90300151D01*
X156828233Y-90300154D01*
X156823251Y-90302477D01*
X156805655Y-90314798D01*
X156640211Y-90430643D01*
X156640208Y-90430645D01*
X156635700Y-90433802D01*
X156473802Y-90595700D01*
X156470645Y-90600208D01*
X156470643Y-90600211D01*
X156363819Y-90752771D01*
X156308362Y-90797099D01*
X156260606Y-90806500D01*
X150742538Y-90806500D01*
X150674417Y-90786498D01*
X150636746Y-90748940D01*
X150536675Y-90594253D01*
X150536673Y-90594250D01*
X150533865Y-90589910D01*
X150410819Y-90454684D01*
X150383678Y-90424857D01*
X150383676Y-90424856D01*
X150380200Y-90421035D01*
X150376149Y-90417836D01*
X150376145Y-90417832D01*
X150205076Y-90282730D01*
X150201018Y-90279525D01*
X150084619Y-90215269D01*
X150005660Y-90171681D01*
X150005658Y-90171680D01*
X150001129Y-90169180D01*
X149785902Y-90092965D01*
X149734951Y-90083889D01*
X149566205Y-90053830D01*
X149566201Y-90053830D01*
X149561117Y-90052924D01*
X149487744Y-90052028D01*
X149337981Y-90050198D01*
X149337979Y-90050198D01*
X149332811Y-90050135D01*
X149107115Y-90084671D01*
X148890090Y-90155606D01*
X148885502Y-90157994D01*
X148885498Y-90157996D01*
X148721383Y-90243429D01*
X148651723Y-90257142D01*
X148585708Y-90231017D01*
X148570128Y-90215133D01*
X148569992Y-90215269D01*
X148563642Y-90208919D01*
X148558261Y-90201739D01*
X148441705Y-90114385D01*
X148305316Y-90063255D01*
X148243134Y-90056500D01*
X148079500Y-90056500D01*
X148011379Y-90036498D01*
X147964886Y-89982842D01*
X147953500Y-89930500D01*
X147953500Y-86438763D01*
X147954027Y-86427579D01*
X147955701Y-86420091D01*
X147953562Y-86352032D01*
X147953500Y-86348075D01*
X147953500Y-86320144D01*
X147952994Y-86316138D01*
X147952061Y-86304292D01*
X147950922Y-86268037D01*
X147950673Y-86260110D01*
X147945022Y-86240658D01*
X147941014Y-86221306D01*
X147939467Y-86209063D01*
X147938474Y-86201203D01*
X147935556Y-86193832D01*
X147922200Y-86160097D01*
X147918355Y-86148870D01*
X147917721Y-86146687D01*
X147906018Y-86106407D01*
X147901984Y-86099585D01*
X147901981Y-86099579D01*
X147895706Y-86088968D01*
X147887010Y-86071218D01*
X147882472Y-86059756D01*
X147882469Y-86059751D01*
X147879552Y-86052383D01*
X147853573Y-86016625D01*
X147847057Y-86006707D01*
X147828575Y-85975457D01*
X147824542Y-85968637D01*
X147810218Y-85954313D01*
X147797376Y-85939278D01*
X147785472Y-85922893D01*
X147751406Y-85894711D01*
X147742627Y-85886722D01*
X140203652Y-78347747D01*
X140196112Y-78339461D01*
X140192000Y-78332982D01*
X140142348Y-78286356D01*
X140139507Y-78283602D01*
X140119770Y-78263865D01*
X140116573Y-78261385D01*
X140107551Y-78253680D01*
X140081100Y-78228841D01*
X140075321Y-78223414D01*
X140068375Y-78219595D01*
X140068372Y-78219593D01*
X140057566Y-78213652D01*
X140041047Y-78202801D01*
X140040583Y-78202441D01*
X140025041Y-78190386D01*
X140017772Y-78187241D01*
X140017768Y-78187238D01*
X139984463Y-78172826D01*
X139973813Y-78167609D01*
X139935060Y-78146305D01*
X139915437Y-78141267D01*
X139896734Y-78134863D01*
X139885420Y-78129967D01*
X139885419Y-78129967D01*
X139878145Y-78126819D01*
X139870322Y-78125580D01*
X139870312Y-78125577D01*
X139834476Y-78119901D01*
X139822856Y-78117495D01*
X139787711Y-78108472D01*
X139787710Y-78108472D01*
X139780030Y-78106500D01*
X139759776Y-78106500D01*
X139740065Y-78104949D01*
X139727886Y-78103020D01*
X139720057Y-78101780D01*
X139712165Y-78102526D01*
X139676039Y-78105941D01*
X139664181Y-78106500D01*
X138379394Y-78106500D01*
X138311273Y-78086498D01*
X138276181Y-78052771D01*
X138169357Y-77900211D01*
X138169355Y-77900208D01*
X138166198Y-77895700D01*
X138004300Y-77733802D01*
X137999792Y-77730645D01*
X137999789Y-77730643D01*
X137847229Y-77623819D01*
X137802901Y-77568362D01*
X137793500Y-77520606D01*
X137793500Y-70214500D01*
X137813502Y-70146379D01*
X137867158Y-70099886D01*
X137919500Y-70088500D01*
X138208134Y-70088500D01*
X138270316Y-70081745D01*
X138406705Y-70030615D01*
X138523261Y-69943261D01*
X138610615Y-69826705D01*
X138661745Y-69690316D01*
X138668500Y-69628134D01*
X138668500Y-68580000D01*
X150646835Y-68580000D01*
X150665465Y-68816711D01*
X150666619Y-68821518D01*
X150666620Y-68821524D01*
X150701640Y-68967391D01*
X150720895Y-69047594D01*
X150722788Y-69052165D01*
X150722789Y-69052167D01*
X150794807Y-69226034D01*
X150811760Y-69266963D01*
X150814346Y-69271183D01*
X150933241Y-69465202D01*
X150933245Y-69465208D01*
X150935824Y-69469416D01*
X151090031Y-69649969D01*
X151270584Y-69804176D01*
X151274792Y-69806755D01*
X151274798Y-69806759D01*
X151466335Y-69924133D01*
X151513966Y-69976781D01*
X151526500Y-70031566D01*
X151526500Y-70801233D01*
X151525973Y-70812416D01*
X151524298Y-70819909D01*
X151524547Y-70827835D01*
X151524547Y-70827836D01*
X151526438Y-70887986D01*
X151526500Y-70891945D01*
X151526500Y-70919856D01*
X151526997Y-70923790D01*
X151526997Y-70923791D01*
X151527005Y-70923856D01*
X151527938Y-70935693D01*
X151529327Y-70979889D01*
X151534978Y-70999339D01*
X151538987Y-71018700D01*
X151541526Y-71038797D01*
X151544445Y-71046168D01*
X151544445Y-71046170D01*
X151557804Y-71079912D01*
X151561649Y-71091142D01*
X151567145Y-71110060D01*
X151573982Y-71133593D01*
X151578015Y-71140412D01*
X151578017Y-71140417D01*
X151584293Y-71151028D01*
X151592988Y-71168776D01*
X151600448Y-71187617D01*
X151605110Y-71194033D01*
X151605110Y-71194034D01*
X151626436Y-71223387D01*
X151632952Y-71233307D01*
X151655458Y-71271362D01*
X151669779Y-71285683D01*
X151682619Y-71300716D01*
X151694528Y-71317107D01*
X151700634Y-71322158D01*
X151728605Y-71345298D01*
X151737384Y-71353288D01*
X156170848Y-75786752D01*
X156204874Y-75849064D01*
X156203459Y-75908459D01*
X156187882Y-75966591D01*
X156187881Y-75966598D01*
X156186457Y-75971913D01*
X156166502Y-76200000D01*
X156186457Y-76428087D01*
X156245716Y-76649243D01*
X156248039Y-76654224D01*
X156248039Y-76654225D01*
X156340151Y-76851762D01*
X156340154Y-76851767D01*
X156342477Y-76856749D01*
X156473802Y-77044300D01*
X156635700Y-77206198D01*
X156640208Y-77209355D01*
X156640211Y-77209357D01*
X156700442Y-77251531D01*
X156823251Y-77337523D01*
X156828233Y-77339846D01*
X156828238Y-77339849D01*
X157025775Y-77431961D01*
X157030757Y-77434284D01*
X157036065Y-77435706D01*
X157036067Y-77435707D01*
X157246598Y-77492119D01*
X157246600Y-77492119D01*
X157251913Y-77493543D01*
X157480000Y-77513498D01*
X157708087Y-77493543D01*
X157713400Y-77492119D01*
X157713402Y-77492119D01*
X157923933Y-77435707D01*
X157923935Y-77435706D01*
X157929243Y-77434284D01*
X157934225Y-77431961D01*
X158131762Y-77339849D01*
X158131767Y-77339846D01*
X158136749Y-77337523D01*
X158259558Y-77251531D01*
X158319789Y-77209357D01*
X158319792Y-77209355D01*
X158324300Y-77206198D01*
X158486198Y-77044300D01*
X158617523Y-76856749D01*
X158619846Y-76851767D01*
X158619849Y-76851762D01*
X158711961Y-76654225D01*
X158711961Y-76654224D01*
X158714284Y-76649243D01*
X158773543Y-76428087D01*
X158793498Y-76200000D01*
X158773543Y-75971913D01*
X158772117Y-75966591D01*
X158715707Y-75756067D01*
X158715706Y-75756065D01*
X158714284Y-75750757D01*
X158711961Y-75745775D01*
X158619849Y-75548238D01*
X158619846Y-75548233D01*
X158617523Y-75543251D01*
X158486198Y-75355700D01*
X158324300Y-75193802D01*
X158319792Y-75190645D01*
X158319789Y-75190643D01*
X158186824Y-75097540D01*
X158136749Y-75062477D01*
X158131767Y-75060154D01*
X158131762Y-75060151D01*
X157934225Y-74968039D01*
X157934224Y-74968039D01*
X157929243Y-74965716D01*
X157923935Y-74964294D01*
X157923933Y-74964293D01*
X157713402Y-74907881D01*
X157713400Y-74907881D01*
X157708087Y-74906457D01*
X157480000Y-74886502D01*
X157251913Y-74906457D01*
X157246602Y-74907880D01*
X157246591Y-74907882D01*
X157188459Y-74923459D01*
X157117483Y-74921770D01*
X157066752Y-74890848D01*
X152830405Y-70654500D01*
X152796379Y-70592188D01*
X152793500Y-70565405D01*
X152793500Y-70031566D01*
X152813502Y-69963445D01*
X152853665Y-69924133D01*
X153045202Y-69806759D01*
X153045208Y-69806755D01*
X153049416Y-69804176D01*
X153229969Y-69649969D01*
X153384176Y-69469416D01*
X153386755Y-69465208D01*
X153386759Y-69465202D01*
X153504133Y-69273665D01*
X153556781Y-69226034D01*
X153611566Y-69213500D01*
X161340606Y-69213500D01*
X161408727Y-69233502D01*
X161443819Y-69267229D01*
X161523923Y-69381629D01*
X161553802Y-69424300D01*
X161715700Y-69586198D01*
X161720208Y-69589355D01*
X161720211Y-69589357D01*
X161780442Y-69631531D01*
X161903251Y-69717523D01*
X161908233Y-69719846D01*
X161908238Y-69719849D01*
X162059357Y-69790316D01*
X162110757Y-69814284D01*
X162116065Y-69815706D01*
X162116067Y-69815707D01*
X162326598Y-69872119D01*
X162326600Y-69872119D01*
X162331913Y-69873543D01*
X162560000Y-69893498D01*
X162788087Y-69873543D01*
X162793400Y-69872119D01*
X162793402Y-69872119D01*
X163003933Y-69815707D01*
X163003935Y-69815706D01*
X163009243Y-69814284D01*
X163060643Y-69790316D01*
X163211762Y-69719849D01*
X163211767Y-69719846D01*
X163216749Y-69717523D01*
X163339558Y-69631531D01*
X163399789Y-69589357D01*
X163399792Y-69589355D01*
X163404300Y-69586198D01*
X163566198Y-69424300D01*
X163697523Y-69236749D01*
X163699846Y-69231767D01*
X163699849Y-69231762D01*
X163791961Y-69034225D01*
X163791961Y-69034224D01*
X163794284Y-69029243D01*
X163836541Y-68871541D01*
X163852119Y-68813402D01*
X163852120Y-68813398D01*
X163853543Y-68808087D01*
X163873498Y-68580000D01*
X176486502Y-68580000D01*
X176506457Y-68808087D01*
X176507880Y-68813398D01*
X176507881Y-68813402D01*
X176523460Y-68871541D01*
X176565716Y-69029243D01*
X176568039Y-69034224D01*
X176568039Y-69034225D01*
X176660151Y-69231762D01*
X176660154Y-69231767D01*
X176662477Y-69236749D01*
X176793802Y-69424300D01*
X176955700Y-69586198D01*
X176960208Y-69589355D01*
X176960211Y-69589357D01*
X177020442Y-69631531D01*
X177143251Y-69717523D01*
X177148233Y-69719846D01*
X177148238Y-69719849D01*
X177299357Y-69790316D01*
X177350757Y-69814284D01*
X177356065Y-69815706D01*
X177356067Y-69815707D01*
X177566598Y-69872119D01*
X177566600Y-69872119D01*
X177571913Y-69873543D01*
X177800000Y-69893498D01*
X178028087Y-69873543D01*
X178033400Y-69872119D01*
X178033402Y-69872119D01*
X178243933Y-69815707D01*
X178243935Y-69815706D01*
X178249243Y-69814284D01*
X178300643Y-69790316D01*
X178451762Y-69719849D01*
X178451767Y-69719846D01*
X178456749Y-69717523D01*
X178579558Y-69631531D01*
X178639789Y-69589357D01*
X178639792Y-69589355D01*
X178644300Y-69586198D01*
X178806198Y-69424300D01*
X178836077Y-69381629D01*
X178916181Y-69267229D01*
X178971638Y-69222901D01*
X179019394Y-69213500D01*
X182565406Y-69213500D01*
X182633527Y-69233502D01*
X182654501Y-69250405D01*
X184749595Y-71345499D01*
X184783621Y-71407811D01*
X184786500Y-71434594D01*
X184786500Y-74565500D01*
X184766498Y-74633621D01*
X184712842Y-74680114D01*
X184660500Y-74691500D01*
X184371866Y-74691500D01*
X184309684Y-74698255D01*
X184173295Y-74749385D01*
X184056739Y-74836739D01*
X183969385Y-74953295D01*
X183918255Y-75089684D01*
X183911500Y-75151866D01*
X183911500Y-77248134D01*
X183918255Y-77310316D01*
X183969385Y-77446705D01*
X184056739Y-77563261D01*
X184173295Y-77650615D01*
X184309684Y-77701745D01*
X184371866Y-77708500D01*
X186468134Y-77708500D01*
X186530316Y-77701745D01*
X186666705Y-77650615D01*
X186783261Y-77563261D01*
X186870615Y-77446705D01*
X186921745Y-77310316D01*
X186928500Y-77248134D01*
X186928500Y-75151866D01*
X186921745Y-75089684D01*
X186870615Y-74953295D01*
X186783261Y-74836739D01*
X186666705Y-74749385D01*
X186530316Y-74698255D01*
X186468134Y-74691500D01*
X186179500Y-74691500D01*
X186111379Y-74671498D01*
X186064886Y-74617842D01*
X186053500Y-74565500D01*
X186053500Y-71198763D01*
X186054027Y-71187579D01*
X186055701Y-71180091D01*
X186053562Y-71112032D01*
X186053500Y-71108075D01*
X186053500Y-63469854D01*
X186073502Y-63401733D01*
X186090405Y-63380759D01*
X195460760Y-54010405D01*
X195523072Y-53976379D01*
X195549855Y-53973500D01*
X199440606Y-53973500D01*
X199508727Y-53993502D01*
X199543819Y-54027229D01*
X199653802Y-54184300D01*
X199815700Y-54346198D01*
X199820208Y-54349355D01*
X199820211Y-54349357D01*
X199898389Y-54404098D01*
X200003251Y-54477523D01*
X200008233Y-54479846D01*
X200008238Y-54479849D01*
X200042457Y-54495805D01*
X200095742Y-54542722D01*
X200115203Y-54610999D01*
X200094661Y-54678959D01*
X200042457Y-54724195D01*
X200008238Y-54740151D01*
X200008233Y-54740154D01*
X200003251Y-54742477D01*
X199898389Y-54815902D01*
X199820211Y-54870643D01*
X199820208Y-54870645D01*
X199815700Y-54873802D01*
X199653802Y-55035700D01*
X199522477Y-55223251D01*
X199520154Y-55228233D01*
X199520151Y-55228238D01*
X199428039Y-55425775D01*
X199425716Y-55430757D01*
X199366457Y-55651913D01*
X199346502Y-55880000D01*
X199366457Y-56108087D01*
X199425716Y-56329243D01*
X199428039Y-56334224D01*
X199428039Y-56334225D01*
X199520151Y-56531762D01*
X199520154Y-56531767D01*
X199522477Y-56536749D01*
X199653802Y-56724300D01*
X199815700Y-56886198D01*
X199820208Y-56889355D01*
X199820211Y-56889357D01*
X199898389Y-56944098D01*
X200003251Y-57017523D01*
X200008233Y-57019846D01*
X200008238Y-57019849D01*
X200205775Y-57111961D01*
X200210757Y-57114284D01*
X200216065Y-57115706D01*
X200216067Y-57115707D01*
X200426598Y-57172119D01*
X200426600Y-57172119D01*
X200431913Y-57173543D01*
X200660000Y-57193498D01*
X200888087Y-57173543D01*
X200893400Y-57172119D01*
X200893402Y-57172119D01*
X201103933Y-57115707D01*
X201103935Y-57115706D01*
X201109243Y-57114284D01*
X201114225Y-57111961D01*
X201311762Y-57019849D01*
X201311767Y-57019846D01*
X201316749Y-57017523D01*
X201421611Y-56944098D01*
X201499789Y-56889357D01*
X201499792Y-56889355D01*
X201504300Y-56886198D01*
X201666198Y-56724300D01*
X201797523Y-56536749D01*
X201799846Y-56531767D01*
X201799849Y-56531762D01*
X201891961Y-56334225D01*
X201891961Y-56334224D01*
X201894284Y-56329243D01*
X201953543Y-56108087D01*
X201973498Y-55880000D01*
X201953543Y-55651913D01*
X201894284Y-55430757D01*
X201891961Y-55425775D01*
X201799849Y-55228238D01*
X201799846Y-55228233D01*
X201797523Y-55223251D01*
X201666198Y-55035700D01*
X201504300Y-54873802D01*
X201499792Y-54870645D01*
X201499789Y-54870643D01*
X201421611Y-54815902D01*
X201316749Y-54742477D01*
X201311767Y-54740154D01*
X201311762Y-54740151D01*
X201277543Y-54724195D01*
X201224258Y-54677278D01*
X201204797Y-54609001D01*
X201225339Y-54541041D01*
X201277543Y-54495805D01*
X201311762Y-54479849D01*
X201311767Y-54479846D01*
X201316749Y-54477523D01*
X201421611Y-54404098D01*
X201499789Y-54349357D01*
X201499792Y-54349355D01*
X201504300Y-54346198D01*
X201666198Y-54184300D01*
X201797523Y-53996749D01*
X201799846Y-53991767D01*
X201799849Y-53991762D01*
X201891961Y-53794225D01*
X201891961Y-53794224D01*
X201894284Y-53789243D01*
X201930364Y-53654594D01*
X201952119Y-53573402D01*
X201952119Y-53573400D01*
X201953543Y-53568087D01*
X201973498Y-53340000D01*
X201973019Y-53334525D01*
X201973019Y-53334514D01*
X201971974Y-53322570D01*
X201985962Y-53252965D01*
X202035361Y-53201973D01*
X202104487Y-53185782D01*
X202171393Y-53209534D01*
X202186589Y-53222493D01*
X202529595Y-53565499D01*
X202563621Y-53627811D01*
X202566500Y-53654594D01*
X202566500Y-65725405D01*
X202546498Y-65793526D01*
X202529595Y-65814500D01*
X201073247Y-67270848D01*
X201010935Y-67304874D01*
X200951542Y-67303460D01*
X200888087Y-67286457D01*
X200660000Y-67266502D01*
X200431913Y-67286457D01*
X200426600Y-67287881D01*
X200426598Y-67287881D01*
X200216067Y-67344293D01*
X200216065Y-67344294D01*
X200210757Y-67345716D01*
X200205776Y-67348039D01*
X200205775Y-67348039D01*
X200008238Y-67440151D01*
X200008233Y-67440154D01*
X200003251Y-67442477D01*
X199953176Y-67477540D01*
X199820211Y-67570643D01*
X199820208Y-67570645D01*
X199815700Y-67573802D01*
X199653802Y-67735700D01*
X199522477Y-67923251D01*
X199520154Y-67928233D01*
X199520151Y-67928238D01*
X199434273Y-68112406D01*
X199425716Y-68130757D01*
X199424294Y-68136065D01*
X199424293Y-68136067D01*
X199374262Y-68322784D01*
X199366457Y-68351913D01*
X199346502Y-68580000D01*
X199366457Y-68808087D01*
X199383460Y-68871541D01*
X199381770Y-68942518D01*
X199350848Y-68993247D01*
X193453247Y-74890848D01*
X193390935Y-74924874D01*
X193331542Y-74923460D01*
X193268087Y-74906457D01*
X193040000Y-74886502D01*
X192811913Y-74906457D01*
X192806600Y-74907881D01*
X192806598Y-74907881D01*
X192596067Y-74964293D01*
X192596065Y-74964294D01*
X192590757Y-74965716D01*
X192585776Y-74968039D01*
X192585775Y-74968039D01*
X192388238Y-75060151D01*
X192388233Y-75060154D01*
X192383251Y-75062477D01*
X192333176Y-75097540D01*
X192200211Y-75190643D01*
X192200208Y-75190645D01*
X192195700Y-75193802D01*
X192033802Y-75355700D01*
X191902477Y-75543251D01*
X191900154Y-75548233D01*
X191900151Y-75548238D01*
X191808039Y-75745775D01*
X191805716Y-75750757D01*
X191804294Y-75756065D01*
X191804293Y-75756067D01*
X191747883Y-75966591D01*
X191746457Y-75971913D01*
X191726502Y-76200000D01*
X191746457Y-76428087D01*
X191805716Y-76649243D01*
X191808039Y-76654224D01*
X191808039Y-76654225D01*
X191900151Y-76851762D01*
X191900154Y-76851767D01*
X191902477Y-76856749D01*
X192033802Y-77044300D01*
X192195700Y-77206198D01*
X192200208Y-77209355D01*
X192200211Y-77209357D01*
X192260442Y-77251531D01*
X192383251Y-77337523D01*
X192388233Y-77339846D01*
X192388238Y-77339849D01*
X192585775Y-77431961D01*
X192590757Y-77434284D01*
X192596065Y-77435706D01*
X192596067Y-77435707D01*
X192806598Y-77492119D01*
X192806600Y-77492119D01*
X192811913Y-77493543D01*
X193040000Y-77513498D01*
X193268087Y-77493543D01*
X193273400Y-77492119D01*
X193273402Y-77492119D01*
X193483933Y-77435707D01*
X193483935Y-77435706D01*
X193489243Y-77434284D01*
X193494225Y-77431961D01*
X193691762Y-77339849D01*
X193691767Y-77339846D01*
X193696749Y-77337523D01*
X193819558Y-77251531D01*
X193879789Y-77209357D01*
X193879792Y-77209355D01*
X193884300Y-77206198D01*
X194046198Y-77044300D01*
X194177523Y-76856749D01*
X194179846Y-76851767D01*
X194179849Y-76851762D01*
X194271961Y-76654225D01*
X194271961Y-76654224D01*
X194274284Y-76649243D01*
X194333543Y-76428087D01*
X194353498Y-76200000D01*
X194333543Y-75971913D01*
X194332119Y-75966598D01*
X194332118Y-75966591D01*
X194316541Y-75908459D01*
X194318230Y-75837483D01*
X194349152Y-75786752D01*
X200246752Y-69889152D01*
X200309064Y-69855126D01*
X200368459Y-69856541D01*
X200426591Y-69872118D01*
X200426602Y-69872120D01*
X200431913Y-69873543D01*
X200660000Y-69893498D01*
X200888087Y-69873543D01*
X200893400Y-69872119D01*
X200893402Y-69872119D01*
X201103933Y-69815707D01*
X201103935Y-69815706D01*
X201109243Y-69814284D01*
X201160643Y-69790316D01*
X201311762Y-69719849D01*
X201311767Y-69719846D01*
X201316749Y-69717523D01*
X201439558Y-69631531D01*
X201499789Y-69589357D01*
X201499792Y-69589355D01*
X201504300Y-69586198D01*
X201666198Y-69424300D01*
X201797523Y-69236749D01*
X201799846Y-69231767D01*
X201799849Y-69231762D01*
X201891961Y-69034225D01*
X201891961Y-69034224D01*
X201894284Y-69029243D01*
X201936541Y-68871541D01*
X201952119Y-68813402D01*
X201952120Y-68813398D01*
X201953543Y-68808087D01*
X201973498Y-68580000D01*
X201953543Y-68351913D01*
X201952119Y-68346598D01*
X201952118Y-68346591D01*
X201936541Y-68288459D01*
X201938230Y-68217483D01*
X201969152Y-68166752D01*
X203592247Y-66543657D01*
X203600537Y-66536113D01*
X203607018Y-66532000D01*
X203653659Y-66482332D01*
X203656413Y-66479491D01*
X203676134Y-66459770D01*
X203678612Y-66456575D01*
X203686318Y-66447553D01*
X203711158Y-66421101D01*
X203716586Y-66415321D01*
X203726346Y-66397568D01*
X203737199Y-66381045D01*
X203744753Y-66371306D01*
X203749613Y-66365041D01*
X203767176Y-66324457D01*
X203772383Y-66313827D01*
X203793695Y-66275060D01*
X203795666Y-66267383D01*
X203795668Y-66267378D01*
X203798732Y-66255442D01*
X203805138Y-66236730D01*
X203810034Y-66225417D01*
X203813181Y-66218145D01*
X203820097Y-66174481D01*
X203822504Y-66162860D01*
X203831528Y-66127711D01*
X203831528Y-66127710D01*
X203833500Y-66120030D01*
X203833500Y-66099769D01*
X203835051Y-66080058D01*
X203836979Y-66067885D01*
X203838219Y-66060057D01*
X203834059Y-66016046D01*
X203833500Y-66004189D01*
X203833500Y-53418763D01*
X203834027Y-53407579D01*
X203835701Y-53400091D01*
X203833562Y-53332032D01*
X203833500Y-53328075D01*
X203833500Y-53300144D01*
X203832994Y-53296138D01*
X203832061Y-53284292D01*
X203830922Y-53248037D01*
X203830673Y-53240110D01*
X203825022Y-53220658D01*
X203821014Y-53201306D01*
X203819468Y-53189068D01*
X203819467Y-53189066D01*
X203818474Y-53181203D01*
X203802194Y-53140086D01*
X203798359Y-53128885D01*
X203786018Y-53086406D01*
X203781985Y-53079587D01*
X203781983Y-53079582D01*
X203775707Y-53068971D01*
X203767010Y-53051221D01*
X203759552Y-53032383D01*
X203733571Y-52996623D01*
X203727053Y-52986701D01*
X203708578Y-52955460D01*
X203708574Y-52955455D01*
X203704542Y-52948637D01*
X203690218Y-52934313D01*
X203677376Y-52919278D01*
X203676000Y-52917384D01*
X203665472Y-52902893D01*
X203631406Y-52874711D01*
X203622627Y-52866722D01*
X201969152Y-51213247D01*
X201935126Y-51150935D01*
X201936540Y-51091541D01*
X201953543Y-51028087D01*
X201973498Y-50800000D01*
X201953543Y-50571913D01*
X201926547Y-50471163D01*
X201928237Y-50400187D01*
X201968031Y-50341391D01*
X202033295Y-50313443D01*
X202049319Y-50312741D01*
X202055432Y-50313709D01*
X202099451Y-50309548D01*
X202111308Y-50308989D01*
X206892701Y-50308989D01*
X206960822Y-50328991D01*
X207007315Y-50382647D01*
X207017419Y-50452921D01*
X207014410Y-50467593D01*
X206986457Y-50571913D01*
X206966502Y-50800000D01*
X206986457Y-51028087D01*
X206987880Y-51033398D01*
X206987881Y-51033402D01*
X207003460Y-51091541D01*
X207045716Y-51249243D01*
X207048039Y-51254224D01*
X207048039Y-51254225D01*
X207140151Y-51451762D01*
X207140154Y-51451767D01*
X207142477Y-51456749D01*
X207273802Y-51644300D01*
X207435700Y-51806198D01*
X207440208Y-51809355D01*
X207440211Y-51809357D01*
X207518389Y-51864098D01*
X207623251Y-51937523D01*
X207628233Y-51939846D01*
X207628238Y-51939849D01*
X207662457Y-51955805D01*
X207715742Y-52002722D01*
X207735203Y-52070999D01*
X207714661Y-52138959D01*
X207662457Y-52184195D01*
X207628238Y-52200151D01*
X207628233Y-52200154D01*
X207623251Y-52202477D01*
X207518389Y-52275902D01*
X207440211Y-52330643D01*
X207440208Y-52330645D01*
X207435700Y-52333802D01*
X207273802Y-52495700D01*
X207142477Y-52683251D01*
X207140154Y-52688233D01*
X207140151Y-52688238D01*
X207055456Y-52869869D01*
X207045716Y-52890757D01*
X207044294Y-52896065D01*
X207044293Y-52896067D01*
X206987883Y-53106591D01*
X206986457Y-53111913D01*
X206966502Y-53340000D01*
X206986457Y-53568087D01*
X206987881Y-53573400D01*
X206987881Y-53573402D01*
X207009637Y-53654594D01*
X207045716Y-53789243D01*
X207048039Y-53794224D01*
X207048039Y-53794225D01*
X207140151Y-53991762D01*
X207140154Y-53991767D01*
X207142477Y-53996749D01*
X207273802Y-54184300D01*
X207435700Y-54346198D01*
X207440208Y-54349355D01*
X207440211Y-54349357D01*
X207518389Y-54404098D01*
X207623251Y-54477523D01*
X207628233Y-54479846D01*
X207628238Y-54479849D01*
X207662457Y-54495805D01*
X207715742Y-54542722D01*
X207735203Y-54610999D01*
X207714661Y-54678959D01*
X207662457Y-54724195D01*
X207628238Y-54740151D01*
X207628233Y-54740154D01*
X207623251Y-54742477D01*
X207518389Y-54815902D01*
X207440211Y-54870643D01*
X207440208Y-54870645D01*
X207435700Y-54873802D01*
X207273802Y-55035700D01*
X207142477Y-55223251D01*
X207140154Y-55228233D01*
X207140151Y-55228238D01*
X207048039Y-55425775D01*
X207045716Y-55430757D01*
X206986457Y-55651913D01*
X206966502Y-55880000D01*
X206986457Y-56108087D01*
X207045716Y-56329243D01*
X207048039Y-56334224D01*
X207048039Y-56334225D01*
X207140151Y-56531762D01*
X207140154Y-56531767D01*
X207142477Y-56536749D01*
X207273802Y-56724300D01*
X207435700Y-56886198D01*
X207440208Y-56889355D01*
X207440211Y-56889357D01*
X207518389Y-56944098D01*
X207623251Y-57017523D01*
X207628233Y-57019846D01*
X207628238Y-57019849D01*
X207825775Y-57111961D01*
X207830757Y-57114284D01*
X207836065Y-57115706D01*
X207836067Y-57115707D01*
X208046598Y-57172119D01*
X208046600Y-57172119D01*
X208051913Y-57173543D01*
X208280000Y-57193498D01*
X208508087Y-57173543D01*
X208513400Y-57172119D01*
X208513402Y-57172119D01*
X208723933Y-57115707D01*
X208723935Y-57115706D01*
X208729243Y-57114284D01*
X208734225Y-57111961D01*
X208931762Y-57019849D01*
X208931767Y-57019846D01*
X208936749Y-57017523D01*
X209041611Y-56944098D01*
X209119789Y-56889357D01*
X209119792Y-56889355D01*
X209124300Y-56886198D01*
X209286198Y-56724300D01*
X209417523Y-56536749D01*
X209419846Y-56531767D01*
X209419849Y-56531762D01*
X209511961Y-56334225D01*
X209511961Y-56334224D01*
X209514284Y-56329243D01*
X209573543Y-56108087D01*
X209593498Y-55880000D01*
X209573543Y-55651913D01*
X209514284Y-55430757D01*
X209511961Y-55425775D01*
X209419849Y-55228238D01*
X209419846Y-55228233D01*
X209417523Y-55223251D01*
X209286198Y-55035700D01*
X209124300Y-54873802D01*
X209119792Y-54870645D01*
X209119789Y-54870643D01*
X209041611Y-54815902D01*
X208936749Y-54742477D01*
X208931767Y-54740154D01*
X208931762Y-54740151D01*
X208897543Y-54724195D01*
X208844258Y-54677278D01*
X208824797Y-54609001D01*
X208845339Y-54541041D01*
X208897543Y-54495805D01*
X208931762Y-54479849D01*
X208931767Y-54479846D01*
X208936749Y-54477523D01*
X209041611Y-54404098D01*
X209119789Y-54349357D01*
X209119792Y-54349355D01*
X209124300Y-54346198D01*
X209286198Y-54184300D01*
X209417523Y-53996749D01*
X209419846Y-53991767D01*
X209419849Y-53991762D01*
X209511961Y-53794225D01*
X209511961Y-53794224D01*
X209514284Y-53789243D01*
X209550364Y-53654594D01*
X209572119Y-53573402D01*
X209572119Y-53573400D01*
X209573543Y-53568087D01*
X209593498Y-53340000D01*
X209573543Y-53111913D01*
X209572117Y-53106591D01*
X209515707Y-52896067D01*
X209515706Y-52896065D01*
X209514284Y-52890757D01*
X209504544Y-52869869D01*
X209419849Y-52688238D01*
X209419846Y-52688233D01*
X209417523Y-52683251D01*
X209286198Y-52495700D01*
X209124300Y-52333802D01*
X209119792Y-52330645D01*
X209119789Y-52330643D01*
X209041611Y-52275902D01*
X208936749Y-52202477D01*
X208931767Y-52200154D01*
X208931762Y-52200151D01*
X208897543Y-52184195D01*
X208844258Y-52137278D01*
X208824797Y-52069001D01*
X208845339Y-52001041D01*
X208897543Y-51955805D01*
X208931762Y-51939849D01*
X208931767Y-51939846D01*
X208936749Y-51937523D01*
X209041611Y-51864098D01*
X209119789Y-51809357D01*
X209119792Y-51809355D01*
X209124300Y-51806198D01*
X209286198Y-51644300D01*
X209417523Y-51456749D01*
X209419846Y-51451767D01*
X209419849Y-51451762D01*
X209511961Y-51254225D01*
X209511961Y-51254224D01*
X209514284Y-51249243D01*
X209556541Y-51091541D01*
X209572119Y-51033402D01*
X209572120Y-51033398D01*
X209573543Y-51028087D01*
X209593498Y-50800000D01*
X209573543Y-50571913D01*
X209545592Y-50467599D01*
X209547282Y-50396624D01*
X209587076Y-50337828D01*
X209652340Y-50309880D01*
X209667299Y-50308989D01*
X222080895Y-50308989D01*
X222149016Y-50328991D01*
X222169990Y-50345894D01*
X224750848Y-52926752D01*
X224784874Y-52989064D01*
X224783459Y-53048459D01*
X224767882Y-53106591D01*
X224767881Y-53106598D01*
X224766457Y-53111913D01*
X224746502Y-53340000D01*
X224766457Y-53568087D01*
X224767881Y-53573400D01*
X224767881Y-53573402D01*
X224789637Y-53654594D01*
X224825716Y-53789243D01*
X224828039Y-53794224D01*
X224828039Y-53794225D01*
X224920151Y-53991762D01*
X224920154Y-53991767D01*
X224922477Y-53996749D01*
X225053802Y-54184300D01*
X225215700Y-54346198D01*
X225220208Y-54349355D01*
X225220211Y-54349357D01*
X225372771Y-54456181D01*
X225417099Y-54511638D01*
X225426500Y-54559394D01*
X225426500Y-58105406D01*
X225406498Y-58173527D01*
X225389595Y-58194501D01*
X216313248Y-67270848D01*
X216250936Y-67304874D01*
X216191541Y-67303459D01*
X216133409Y-67287882D01*
X216133398Y-67287880D01*
X216128087Y-67286457D01*
X215900000Y-67266502D01*
X215671913Y-67286457D01*
X215666600Y-67287881D01*
X215666598Y-67287881D01*
X215456067Y-67344293D01*
X215456065Y-67344294D01*
X215450757Y-67345716D01*
X215445776Y-67348039D01*
X215445775Y-67348039D01*
X215248238Y-67440151D01*
X215248233Y-67440154D01*
X215243251Y-67442477D01*
X215193176Y-67477540D01*
X215060211Y-67570643D01*
X215060208Y-67570645D01*
X215055700Y-67573802D01*
X214893802Y-67735700D01*
X214762477Y-67923251D01*
X214760154Y-67928233D01*
X214760151Y-67928238D01*
X214674273Y-68112406D01*
X214665716Y-68130757D01*
X214664294Y-68136065D01*
X214664293Y-68136067D01*
X214614262Y-68322784D01*
X214606457Y-68351913D01*
X214586502Y-68580000D01*
X214606457Y-68808087D01*
X214607880Y-68813398D01*
X214607881Y-68813402D01*
X214623460Y-68871541D01*
X214665716Y-69029243D01*
X214668039Y-69034224D01*
X214668039Y-69034225D01*
X214760151Y-69231762D01*
X214760154Y-69231767D01*
X214762477Y-69236749D01*
X214893802Y-69424300D01*
X215055700Y-69586198D01*
X215060208Y-69589355D01*
X215060211Y-69589357D01*
X215120442Y-69631531D01*
X215243251Y-69717523D01*
X215248233Y-69719846D01*
X215248238Y-69719849D01*
X215399357Y-69790316D01*
X215450757Y-69814284D01*
X215456065Y-69815706D01*
X215456067Y-69815707D01*
X215666598Y-69872119D01*
X215666600Y-69872119D01*
X215671913Y-69873543D01*
X215900000Y-69893498D01*
X216128087Y-69873543D01*
X216133400Y-69872119D01*
X216133402Y-69872119D01*
X216343933Y-69815707D01*
X216343935Y-69815706D01*
X216349243Y-69814284D01*
X216400643Y-69790316D01*
X216551762Y-69719849D01*
X216551767Y-69719846D01*
X216556749Y-69717523D01*
X216679558Y-69631531D01*
X216739789Y-69589357D01*
X216739792Y-69589355D01*
X216744300Y-69586198D01*
X216906198Y-69424300D01*
X217037523Y-69236749D01*
X217039846Y-69231767D01*
X217039849Y-69231762D01*
X217131961Y-69034225D01*
X217131961Y-69034224D01*
X217134284Y-69029243D01*
X217176541Y-68871541D01*
X217192119Y-68813402D01*
X217192120Y-68813398D01*
X217193543Y-68808087D01*
X217213498Y-68580000D01*
X217193543Y-68351913D01*
X217192119Y-68346598D01*
X217192118Y-68346591D01*
X217176541Y-68288459D01*
X217178230Y-68217483D01*
X217209152Y-68166752D01*
X226452253Y-58923652D01*
X226460539Y-58916112D01*
X226467018Y-58912000D01*
X226513644Y-58862348D01*
X226516398Y-58859507D01*
X226536135Y-58839770D01*
X226538615Y-58836573D01*
X226546320Y-58827551D01*
X226571159Y-58801100D01*
X226576586Y-58795321D01*
X226580405Y-58788375D01*
X226580407Y-58788372D01*
X226586348Y-58777566D01*
X226597199Y-58761047D01*
X226604758Y-58751301D01*
X226609614Y-58745041D01*
X226612759Y-58737772D01*
X226612762Y-58737768D01*
X226627174Y-58704463D01*
X226632391Y-58693813D01*
X226653695Y-58655060D01*
X226658733Y-58635437D01*
X226665137Y-58616734D01*
X226670033Y-58605420D01*
X226670033Y-58605419D01*
X226673181Y-58598145D01*
X226674420Y-58590322D01*
X226674423Y-58590312D01*
X226680099Y-58554476D01*
X226682505Y-58542856D01*
X226691528Y-58507711D01*
X226691528Y-58507710D01*
X226693500Y-58500030D01*
X226693500Y-58479776D01*
X226695051Y-58460065D01*
X226696980Y-58447886D01*
X226698220Y-58440057D01*
X226694059Y-58396038D01*
X226693500Y-58384181D01*
X226693500Y-54559394D01*
X226713502Y-54491273D01*
X226747229Y-54456181D01*
X226899789Y-54349357D01*
X226899792Y-54349355D01*
X226904300Y-54346198D01*
X227066198Y-54184300D01*
X227197523Y-53996749D01*
X227199846Y-53991767D01*
X227199849Y-53991762D01*
X227291961Y-53794225D01*
X227291961Y-53794224D01*
X227294284Y-53789243D01*
X227330364Y-53654594D01*
X227352119Y-53573402D01*
X227352119Y-53573400D01*
X227353543Y-53568087D01*
X227373498Y-53340000D01*
X227353543Y-53111913D01*
X227352117Y-53106591D01*
X227295707Y-52896067D01*
X227295706Y-52896065D01*
X227294284Y-52890757D01*
X227284544Y-52869869D01*
X227199849Y-52688238D01*
X227199846Y-52688233D01*
X227197523Y-52683251D01*
X227066198Y-52495700D01*
X226904300Y-52333802D01*
X226899792Y-52330645D01*
X226899789Y-52330643D01*
X226821611Y-52275902D01*
X226716749Y-52202477D01*
X226711767Y-52200154D01*
X226711762Y-52200151D01*
X226514225Y-52108039D01*
X226514224Y-52108039D01*
X226509243Y-52105716D01*
X226503935Y-52104294D01*
X226503933Y-52104293D01*
X226293402Y-52047881D01*
X226293400Y-52047881D01*
X226288087Y-52046457D01*
X226060000Y-52026502D01*
X225831913Y-52046457D01*
X225768458Y-52063460D01*
X225697482Y-52061770D01*
X225646753Y-52030848D01*
X222899141Y-49283236D01*
X222891601Y-49274950D01*
X222887489Y-49268471D01*
X222837837Y-49221845D01*
X222834996Y-49219091D01*
X222815259Y-49199354D01*
X222812062Y-49196874D01*
X222803040Y-49189169D01*
X222790843Y-49177715D01*
X222770810Y-49158903D01*
X222763864Y-49155084D01*
X222763861Y-49155082D01*
X222753055Y-49149141D01*
X222736536Y-49138290D01*
X222736072Y-49137930D01*
X222720530Y-49125875D01*
X222713261Y-49122730D01*
X222713257Y-49122727D01*
X222679952Y-49108315D01*
X222669302Y-49103098D01*
X222630549Y-49081794D01*
X222610926Y-49076756D01*
X222592223Y-49070352D01*
X222580909Y-49065456D01*
X222580908Y-49065456D01*
X222573634Y-49062308D01*
X222565811Y-49061069D01*
X222565801Y-49061066D01*
X222529965Y-49055390D01*
X222518345Y-49052984D01*
X222483200Y-49043961D01*
X222483199Y-49043961D01*
X222475519Y-49041989D01*
X222455265Y-49041989D01*
X222435554Y-49040438D01*
X222423375Y-49038509D01*
X222415546Y-49037269D01*
X222407654Y-49038015D01*
X222371528Y-49041430D01*
X222359670Y-49041989D01*
X209556903Y-49041989D01*
X209488782Y-49021987D01*
X209442289Y-48968331D01*
X209432185Y-48898057D01*
X209442708Y-48862739D01*
X209511961Y-48714225D01*
X209511961Y-48714224D01*
X209514284Y-48709243D01*
X209530912Y-48647189D01*
X209572119Y-48493402D01*
X209572119Y-48493400D01*
X209573543Y-48488087D01*
X209593498Y-48260000D01*
X209573543Y-48031913D01*
X209514284Y-47810757D01*
X209511961Y-47805775D01*
X209419849Y-47608238D01*
X209419846Y-47608233D01*
X209417523Y-47603251D01*
X209286198Y-47415700D01*
X209124300Y-47253802D01*
X209119792Y-47250645D01*
X209119789Y-47250643D01*
X209041611Y-47195902D01*
X208936749Y-47122477D01*
X208931767Y-47120154D01*
X208931762Y-47120151D01*
X208734225Y-47028039D01*
X208734224Y-47028039D01*
X208729243Y-47025716D01*
X208723935Y-47024294D01*
X208723933Y-47024293D01*
X208513402Y-46967881D01*
X208513400Y-46967881D01*
X208508087Y-46966457D01*
X208280000Y-46946502D01*
X208051913Y-46966457D01*
X208046600Y-46967881D01*
X208046598Y-46967881D01*
X207836067Y-47024293D01*
X207836065Y-47024294D01*
X207830757Y-47025716D01*
X207825776Y-47028039D01*
X207825775Y-47028039D01*
X207628238Y-47120151D01*
X207628233Y-47120154D01*
X207623251Y-47122477D01*
X207518389Y-47195902D01*
X207440211Y-47250643D01*
X207440208Y-47250645D01*
X207435700Y-47253802D01*
X207273802Y-47415700D01*
X207142477Y-47603251D01*
X207140154Y-47608233D01*
X207140151Y-47608238D01*
X207048039Y-47805775D01*
X207045716Y-47810757D01*
X206986457Y-48031913D01*
X206966502Y-48260000D01*
X206986457Y-48488087D01*
X206987881Y-48493400D01*
X206987881Y-48493402D01*
X207029089Y-48647189D01*
X207045716Y-48709243D01*
X207048039Y-48714224D01*
X207048039Y-48714225D01*
X207117292Y-48862739D01*
X207127953Y-48932931D01*
X207098973Y-48997744D01*
X207039553Y-49036600D01*
X207003097Y-49041989D01*
X202390083Y-49041989D01*
X202321962Y-49021987D01*
X202300988Y-49005084D01*
X202005405Y-48709501D01*
X201971379Y-48647189D01*
X201968500Y-48620406D01*
X201968500Y-47411866D01*
X201961745Y-47349684D01*
X201910615Y-47213295D01*
X201823261Y-47096739D01*
X201706705Y-47009385D01*
X201570316Y-46958255D01*
X201508134Y-46951500D01*
X199811866Y-46951500D01*
X199749684Y-46958255D01*
X199613295Y-47009385D01*
X199496739Y-47096739D01*
X199409385Y-47213295D01*
X199358255Y-47349684D01*
X199351500Y-47411866D01*
X199351500Y-49108134D01*
X199358255Y-49170316D01*
X199409385Y-49306705D01*
X199496739Y-49423261D01*
X199613295Y-49510615D01*
X199749684Y-49561745D01*
X199760474Y-49562917D01*
X199762606Y-49563803D01*
X199765222Y-49564425D01*
X199765121Y-49564848D01*
X199826035Y-49590155D01*
X199866463Y-49648517D01*
X199868922Y-49719471D01*
X199832629Y-49780490D01*
X199823969Y-49787489D01*
X199820207Y-49790646D01*
X199815700Y-49793802D01*
X199653802Y-49955700D01*
X199522477Y-50143251D01*
X199520154Y-50148233D01*
X199520151Y-50148238D01*
X199431745Y-50337828D01*
X199425716Y-50350757D01*
X199424294Y-50356065D01*
X199424293Y-50356067D01*
X199393453Y-50471163D01*
X199366457Y-50571913D01*
X199346502Y-50800000D01*
X199366457Y-51028087D01*
X199367880Y-51033398D01*
X199367881Y-51033402D01*
X199383460Y-51091541D01*
X199425716Y-51249243D01*
X199428039Y-51254224D01*
X199428039Y-51254225D01*
X199520151Y-51451762D01*
X199520154Y-51451767D01*
X199522477Y-51456749D01*
X199653802Y-51644300D01*
X199815700Y-51806198D01*
X199820208Y-51809355D01*
X199820211Y-51809357D01*
X199898389Y-51864098D01*
X200003251Y-51937523D01*
X200008233Y-51939846D01*
X200008238Y-51939849D01*
X200042457Y-51955805D01*
X200095742Y-52002722D01*
X200115203Y-52070999D01*
X200094661Y-52138959D01*
X200042457Y-52184195D01*
X200008238Y-52200151D01*
X200008233Y-52200154D01*
X200003251Y-52202477D01*
X199898389Y-52275902D01*
X199820211Y-52330643D01*
X199820208Y-52330645D01*
X199815700Y-52333802D01*
X199653802Y-52495700D01*
X199650645Y-52500208D01*
X199650643Y-52500211D01*
X199543819Y-52652771D01*
X199488362Y-52697099D01*
X199440606Y-52706500D01*
X195314027Y-52706500D01*
X195302844Y-52705973D01*
X195295351Y-52704298D01*
X195287425Y-52704547D01*
X195287424Y-52704547D01*
X195227261Y-52706438D01*
X195223303Y-52706500D01*
X195195404Y-52706500D01*
X195191414Y-52707004D01*
X195179580Y-52707936D01*
X195135371Y-52709326D01*
X195127757Y-52711538D01*
X195127752Y-52711539D01*
X195115919Y-52714977D01*
X195096556Y-52718988D01*
X195076463Y-52721526D01*
X195069096Y-52724443D01*
X195069091Y-52724444D01*
X195035352Y-52737802D01*
X195024125Y-52741646D01*
X194981667Y-52753982D01*
X194974841Y-52758019D01*
X194964232Y-52764293D01*
X194946484Y-52772988D01*
X194927643Y-52780448D01*
X194921227Y-52785110D01*
X194921226Y-52785110D01*
X194891873Y-52806436D01*
X194881953Y-52812952D01*
X194850725Y-52831420D01*
X194850722Y-52831422D01*
X194843898Y-52835458D01*
X194829577Y-52849779D01*
X194814544Y-52862619D01*
X194798153Y-52874528D01*
X194778868Y-52897840D01*
X194769962Y-52908605D01*
X194761972Y-52917384D01*
X185027747Y-62651608D01*
X185019461Y-62659148D01*
X185012982Y-62663260D01*
X185007557Y-62669037D01*
X184966357Y-62712911D01*
X184963602Y-62715753D01*
X184943865Y-62735490D01*
X184941385Y-62738687D01*
X184933682Y-62747707D01*
X184903414Y-62779939D01*
X184899595Y-62786885D01*
X184899593Y-62786888D01*
X184893652Y-62797694D01*
X184882801Y-62814213D01*
X184870386Y-62830219D01*
X184867241Y-62837488D01*
X184867238Y-62837492D01*
X184852826Y-62870797D01*
X184847609Y-62881447D01*
X184826305Y-62920200D01*
X184824334Y-62927875D01*
X184824334Y-62927876D01*
X184821267Y-62939822D01*
X184814863Y-62958526D01*
X184806819Y-62977115D01*
X184805580Y-62984938D01*
X184805577Y-62984948D01*
X184799901Y-63020784D01*
X184797495Y-63032404D01*
X184786500Y-63075230D01*
X184786500Y-63095484D01*
X184784949Y-63115194D01*
X184781780Y-63135203D01*
X184782526Y-63143095D01*
X184785941Y-63179221D01*
X184786500Y-63191079D01*
X184786500Y-69286405D01*
X184766498Y-69354526D01*
X184712842Y-69401019D01*
X184642568Y-69411123D01*
X184577988Y-69381629D01*
X184571405Y-69375500D01*
X183383652Y-68187747D01*
X183376112Y-68179461D01*
X183372000Y-68172982D01*
X183322348Y-68126356D01*
X183319507Y-68123602D01*
X183299770Y-68103865D01*
X183296573Y-68101385D01*
X183287551Y-68093680D01*
X183261100Y-68068841D01*
X183255321Y-68063414D01*
X183248375Y-68059595D01*
X183248372Y-68059593D01*
X183237566Y-68053652D01*
X183221047Y-68042801D01*
X183220583Y-68042441D01*
X183205041Y-68030386D01*
X183197772Y-68027241D01*
X183197768Y-68027238D01*
X183164463Y-68012826D01*
X183153813Y-68007609D01*
X183115060Y-67986305D01*
X183095437Y-67981267D01*
X183076734Y-67974863D01*
X183065420Y-67969967D01*
X183065419Y-67969967D01*
X183058145Y-67966819D01*
X183050322Y-67965580D01*
X183050312Y-67965577D01*
X183014476Y-67959901D01*
X183002856Y-67957495D01*
X182967711Y-67948472D01*
X182967710Y-67948472D01*
X182960030Y-67946500D01*
X182939776Y-67946500D01*
X182920065Y-67944949D01*
X182907886Y-67943020D01*
X182900057Y-67941780D01*
X182892165Y-67942526D01*
X182856039Y-67945941D01*
X182844181Y-67946500D01*
X179019394Y-67946500D01*
X178951273Y-67926498D01*
X178916181Y-67892771D01*
X178809357Y-67740211D01*
X178809355Y-67740208D01*
X178806198Y-67735700D01*
X178644300Y-67573802D01*
X178639792Y-67570645D01*
X178639789Y-67570643D01*
X178506824Y-67477540D01*
X178456749Y-67442477D01*
X178451767Y-67440154D01*
X178451762Y-67440151D01*
X178254225Y-67348039D01*
X178254224Y-67348039D01*
X178249243Y-67345716D01*
X178243935Y-67344294D01*
X178243933Y-67344293D01*
X178033402Y-67287881D01*
X178033400Y-67287881D01*
X178028087Y-67286457D01*
X177800000Y-67266502D01*
X177571913Y-67286457D01*
X177566600Y-67287881D01*
X177566598Y-67287881D01*
X177356067Y-67344293D01*
X177356065Y-67344294D01*
X177350757Y-67345716D01*
X177345776Y-67348039D01*
X177345775Y-67348039D01*
X177148238Y-67440151D01*
X177148233Y-67440154D01*
X177143251Y-67442477D01*
X177093176Y-67477540D01*
X176960211Y-67570643D01*
X176960208Y-67570645D01*
X176955700Y-67573802D01*
X176793802Y-67735700D01*
X176662477Y-67923251D01*
X176660154Y-67928233D01*
X176660151Y-67928238D01*
X176574273Y-68112406D01*
X176565716Y-68130757D01*
X176564294Y-68136065D01*
X176564293Y-68136067D01*
X176514262Y-68322784D01*
X176506457Y-68351913D01*
X176486502Y-68580000D01*
X163873498Y-68580000D01*
X163853543Y-68351913D01*
X163845738Y-68322784D01*
X163795707Y-68136067D01*
X163795706Y-68136065D01*
X163794284Y-68130757D01*
X163785727Y-68112406D01*
X163699849Y-67928238D01*
X163699846Y-67928233D01*
X163697523Y-67923251D01*
X163566198Y-67735700D01*
X163404300Y-67573802D01*
X163399792Y-67570645D01*
X163399789Y-67570643D01*
X163266824Y-67477540D01*
X163216749Y-67442477D01*
X163211767Y-67440154D01*
X163211762Y-67440151D01*
X163014225Y-67348039D01*
X163014224Y-67348039D01*
X163009243Y-67345716D01*
X163003935Y-67344294D01*
X163003933Y-67344293D01*
X162793402Y-67287881D01*
X162793400Y-67287881D01*
X162788087Y-67286457D01*
X162560000Y-67266502D01*
X162331913Y-67286457D01*
X162326600Y-67287881D01*
X162326598Y-67287881D01*
X162116067Y-67344293D01*
X162116065Y-67344294D01*
X162110757Y-67345716D01*
X162105776Y-67348039D01*
X162105775Y-67348039D01*
X161908238Y-67440151D01*
X161908233Y-67440154D01*
X161903251Y-67442477D01*
X161853176Y-67477540D01*
X161720211Y-67570643D01*
X161720208Y-67570645D01*
X161715700Y-67573802D01*
X161553802Y-67735700D01*
X161550645Y-67740208D01*
X161550643Y-67740211D01*
X161443819Y-67892771D01*
X161388362Y-67937099D01*
X161340606Y-67946500D01*
X153611566Y-67946500D01*
X153543445Y-67926498D01*
X153504133Y-67886335D01*
X153386759Y-67694798D01*
X153386755Y-67694792D01*
X153384176Y-67690584D01*
X153229969Y-67510031D01*
X153049416Y-67355824D01*
X153045208Y-67353245D01*
X153045202Y-67353241D01*
X152851183Y-67234346D01*
X152846963Y-67231760D01*
X152842393Y-67229867D01*
X152842389Y-67229865D01*
X152632167Y-67142789D01*
X152632165Y-67142788D01*
X152627594Y-67140895D01*
X152526977Y-67116739D01*
X152401524Y-67086620D01*
X152401518Y-67086619D01*
X152396711Y-67085465D01*
X152160000Y-67066835D01*
X151923289Y-67085465D01*
X151918482Y-67086619D01*
X151918476Y-67086620D01*
X151793023Y-67116739D01*
X151692406Y-67140895D01*
X151687835Y-67142788D01*
X151687833Y-67142789D01*
X151477611Y-67229865D01*
X151477607Y-67229867D01*
X151473037Y-67231760D01*
X151468817Y-67234346D01*
X151274798Y-67353241D01*
X151274792Y-67353245D01*
X151270584Y-67355824D01*
X151090031Y-67510031D01*
X150935824Y-67690584D01*
X150933245Y-67694792D01*
X150933241Y-67694798D01*
X150815867Y-67886335D01*
X150811760Y-67893037D01*
X150809867Y-67897607D01*
X150809865Y-67897611D01*
X150726968Y-68097745D01*
X150720895Y-68112406D01*
X150706352Y-68172982D01*
X150668048Y-68332531D01*
X150665465Y-68343289D01*
X150646835Y-68580000D01*
X138668500Y-68580000D01*
X138668500Y-67531866D01*
X138661745Y-67469684D01*
X138610615Y-67333295D01*
X138523261Y-67216739D01*
X138406705Y-67129385D01*
X138270316Y-67078255D01*
X138208134Y-67071500D01*
X136111866Y-67071500D01*
X136049684Y-67078255D01*
X135913295Y-67129385D01*
X135796739Y-67216739D01*
X135709385Y-67333295D01*
X135658255Y-67469684D01*
X135651500Y-67531866D01*
X135651500Y-69628134D01*
X135658255Y-69690316D01*
X135709385Y-69826705D01*
X135796739Y-69943261D01*
X135913295Y-70030615D01*
X136049684Y-70081745D01*
X136111866Y-70088500D01*
X136400500Y-70088500D01*
X136468621Y-70108502D01*
X136515114Y-70162158D01*
X136526500Y-70214500D01*
X136526500Y-77520606D01*
X136506498Y-77588727D01*
X136472771Y-77623819D01*
X136320211Y-77730643D01*
X136320208Y-77730645D01*
X136315700Y-77733802D01*
X136153802Y-77895700D01*
X136022477Y-78083251D01*
X136020154Y-78088233D01*
X136020151Y-78088238D01*
X135939409Y-78261392D01*
X135925716Y-78290757D01*
X135866457Y-78511913D01*
X135846502Y-78740000D01*
X135866457Y-78968087D01*
X135925716Y-79189243D01*
X135928039Y-79194224D01*
X135928039Y-79194225D01*
X136020151Y-79391762D01*
X136020154Y-79391767D01*
X136022477Y-79396749D01*
X136153802Y-79584300D01*
X136315700Y-79746198D01*
X136320208Y-79749355D01*
X136320211Y-79749357D01*
X136398389Y-79804098D01*
X136503251Y-79877523D01*
X136508233Y-79879846D01*
X136508238Y-79879849D01*
X136705775Y-79971961D01*
X136710757Y-79974284D01*
X136716065Y-79975706D01*
X136716067Y-79975707D01*
X136926598Y-80032119D01*
X136926600Y-80032119D01*
X136931913Y-80033543D01*
X137160000Y-80053498D01*
X137388087Y-80033543D01*
X137393400Y-80032119D01*
X137393402Y-80032119D01*
X137603933Y-79975707D01*
X137603935Y-79975706D01*
X137609243Y-79974284D01*
X137614225Y-79971961D01*
X137811762Y-79879849D01*
X137811767Y-79879846D01*
X137816749Y-79877523D01*
X137921611Y-79804098D01*
X137999789Y-79749357D01*
X137999792Y-79749355D01*
X138004300Y-79746198D01*
X138166198Y-79584300D01*
X138276181Y-79427229D01*
X138331638Y-79382901D01*
X138379394Y-79373500D01*
X139385406Y-79373500D01*
X139453527Y-79393502D01*
X139474501Y-79410405D01*
X146649595Y-86585499D01*
X146683621Y-86647811D01*
X146686500Y-86674594D01*
X146686500Y-89930500D01*
X146666498Y-89998621D01*
X146612842Y-90045114D01*
X146560500Y-90056500D01*
X146396866Y-90056500D01*
X146334684Y-90063255D01*
X146198295Y-90114385D01*
X146081739Y-90201739D01*
X145994385Y-90318295D01*
X145943255Y-90454684D01*
X145936500Y-90516866D01*
X145936500Y-92363134D01*
X145943255Y-92425316D01*
X145994385Y-92561705D01*
X146081739Y-92678261D01*
X146198295Y-92765615D01*
X146206703Y-92768767D01*
X146285716Y-92798388D01*
X146342480Y-92841030D01*
X146367180Y-92907591D01*
X146351972Y-92976940D01*
X146332580Y-93003420D01*
X146237234Y-93103194D01*
X146234320Y-93107466D01*
X146234319Y-93107467D01*
X146217718Y-93131803D01*
X146108568Y-93291811D01*
X146106392Y-93296500D01*
X146106388Y-93296506D01*
X146014615Y-93494215D01*
X146012436Y-93498910D01*
X145951419Y-93718929D01*
X145927157Y-93945960D01*
X145927454Y-93951112D01*
X145927454Y-93951116D01*
X145929435Y-93985475D01*
X145940300Y-94173904D01*
X145941437Y-94178950D01*
X145941438Y-94178956D01*
X145948003Y-94208087D01*
X145990496Y-94396641D01*
X146076397Y-94608189D01*
X146079097Y-94612595D01*
X146079098Y-94612597D01*
X146128341Y-94692954D01*
X146195695Y-94802867D01*
X146199084Y-94806780D01*
X146199086Y-94806782D01*
X146341803Y-94971538D01*
X146341807Y-94971542D01*
X146345188Y-94975445D01*
X146349163Y-94978746D01*
X146349166Y-94978748D01*
X146353446Y-94982301D01*
X146520859Y-95121291D01*
X146717993Y-95236486D01*
X146931293Y-95317938D01*
X146936359Y-95318969D01*
X146936360Y-95318969D01*
X147035811Y-95339202D01*
X147155033Y-95363458D01*
X147283389Y-95368165D01*
X147378038Y-95371636D01*
X147378042Y-95371636D01*
X147383202Y-95371825D01*
X147388322Y-95371169D01*
X147388324Y-95371169D01*
X147459356Y-95362069D01*
X147609675Y-95342813D01*
X147614623Y-95341328D01*
X147614630Y-95341327D01*
X147823418Y-95278687D01*
X147823417Y-95278687D01*
X147828368Y-95277202D01*
X148033408Y-95176754D01*
X148037613Y-95173754D01*
X148037619Y-95173751D01*
X148215086Y-95047165D01*
X148215088Y-95047163D01*
X148219290Y-95044166D01*
X148283125Y-94980554D01*
X148345495Y-94946638D01*
X148416302Y-94951826D01*
X148454574Y-94976185D01*
X148455188Y-94975445D01*
X148630859Y-95121291D01*
X148827993Y-95236486D01*
X149041293Y-95317938D01*
X149046359Y-95318969D01*
X149046360Y-95318969D01*
X149145811Y-95339202D01*
X149265033Y-95363458D01*
X149393389Y-95368165D01*
X149488038Y-95371636D01*
X149488042Y-95371636D01*
X149493202Y-95371825D01*
X149498322Y-95371169D01*
X149498324Y-95371169D01*
X149569356Y-95362069D01*
X149719675Y-95342813D01*
X149724623Y-95341328D01*
X149724630Y-95341327D01*
X149933418Y-95278687D01*
X149933417Y-95278687D01*
X149938368Y-95277202D01*
X150143408Y-95176754D01*
X150147613Y-95173754D01*
X150147619Y-95173751D01*
X150325086Y-95047165D01*
X150325088Y-95047163D01*
X150329290Y-95044166D01*
X150491020Y-94882999D01*
X150530399Y-94828197D01*
X150621244Y-94701773D01*
X150621245Y-94701771D01*
X150624256Y-94697581D01*
X150631131Y-94683671D01*
X150679246Y-94631465D01*
X150744088Y-94613500D01*
X154625406Y-94613500D01*
X154693527Y-94633502D01*
X154714501Y-94650405D01*
X156809595Y-96745499D01*
X156843621Y-96807811D01*
X156846500Y-96834594D01*
X156846500Y-100380606D01*
X156826498Y-100448727D01*
X156792771Y-100483819D01*
X156640211Y-100590643D01*
X156640208Y-100590645D01*
X156635700Y-100593802D01*
X156473802Y-100755700D01*
X156342477Y-100943251D01*
X156340154Y-100948233D01*
X156340151Y-100948238D01*
X156248039Y-101145775D01*
X156245716Y-101150757D01*
X156244294Y-101156065D01*
X156244293Y-101156067D01*
X156200250Y-101320437D01*
X156186457Y-101371913D01*
X156166502Y-101600000D01*
X156186457Y-101828087D01*
X156187880Y-101833398D01*
X156187881Y-101833402D01*
X156203460Y-101891541D01*
X156245716Y-102049243D01*
X156248039Y-102054224D01*
X156248039Y-102054225D01*
X156340151Y-102251762D01*
X156340154Y-102251767D01*
X156342477Y-102256749D01*
X156473802Y-102444300D01*
X156635700Y-102606198D01*
X156640208Y-102609355D01*
X156640211Y-102609357D01*
X156718389Y-102664098D01*
X156823251Y-102737523D01*
X156828233Y-102739846D01*
X156828238Y-102739849D01*
X157025775Y-102831961D01*
X157030757Y-102834284D01*
X157036065Y-102835706D01*
X157036067Y-102835707D01*
X157246598Y-102892119D01*
X157246600Y-102892119D01*
X157251913Y-102893543D01*
X157480000Y-102913498D01*
X157708087Y-102893543D01*
X157713400Y-102892119D01*
X157713402Y-102892119D01*
X157923933Y-102835707D01*
X157923935Y-102835706D01*
X157929243Y-102834284D01*
X157934225Y-102831961D01*
X158131762Y-102739849D01*
X158131767Y-102739846D01*
X158136749Y-102737523D01*
X158241611Y-102664098D01*
X158319789Y-102609357D01*
X158319792Y-102609355D01*
X158324300Y-102606198D01*
X158486198Y-102444300D01*
X158617523Y-102256749D01*
X158619846Y-102251767D01*
X158619849Y-102251762D01*
X158711961Y-102054225D01*
X158711961Y-102054224D01*
X158714284Y-102049243D01*
X158756541Y-101891541D01*
X158772119Y-101833402D01*
X158772120Y-101833398D01*
X158773543Y-101828087D01*
X158793498Y-101600000D01*
X158773543Y-101371913D01*
X158759750Y-101320437D01*
X158715707Y-101156067D01*
X158715706Y-101156065D01*
X158714284Y-101150757D01*
X158711961Y-101145775D01*
X158619849Y-100948238D01*
X158619846Y-100948233D01*
X158617523Y-100943251D01*
X158486198Y-100755700D01*
X158324300Y-100593802D01*
X158319792Y-100590645D01*
X158319789Y-100590643D01*
X158167229Y-100483819D01*
X158122901Y-100428362D01*
X158113500Y-100380606D01*
X158113500Y-96598763D01*
X158114027Y-96587579D01*
X158115701Y-96580091D01*
X158113562Y-96512032D01*
X158113500Y-96508075D01*
X158113500Y-96480144D01*
X158112994Y-96476138D01*
X158112061Y-96464292D01*
X158110922Y-96428037D01*
X158110673Y-96420110D01*
X158105022Y-96400658D01*
X158101014Y-96381306D01*
X158099468Y-96369068D01*
X158099467Y-96369066D01*
X158098474Y-96361203D01*
X158082194Y-96320086D01*
X158078359Y-96308885D01*
X158066018Y-96266406D01*
X158061985Y-96259587D01*
X158061983Y-96259582D01*
X158055707Y-96248971D01*
X158047010Y-96231221D01*
X158039552Y-96212383D01*
X158013571Y-96176623D01*
X158007053Y-96166701D01*
X157988578Y-96135460D01*
X157988574Y-96135455D01*
X157984542Y-96128637D01*
X157970218Y-96114313D01*
X157957376Y-96099278D01*
X157945472Y-96082893D01*
X157911406Y-96054711D01*
X157902627Y-96046722D01*
X155443652Y-93587747D01*
X155436112Y-93579461D01*
X155432000Y-93572982D01*
X155382348Y-93526356D01*
X155379507Y-93523602D01*
X155359770Y-93503865D01*
X155356573Y-93501385D01*
X155347551Y-93493680D01*
X155321100Y-93468841D01*
X155315321Y-93463414D01*
X155308375Y-93459595D01*
X155308372Y-93459593D01*
X155297566Y-93453652D01*
X155281047Y-93442801D01*
X155280583Y-93442441D01*
X155265041Y-93430386D01*
X155257772Y-93427241D01*
X155257768Y-93427238D01*
X155224463Y-93412826D01*
X155213813Y-93407609D01*
X155175060Y-93386305D01*
X155155437Y-93381267D01*
X155136734Y-93374863D01*
X155125420Y-93369967D01*
X155125419Y-93369967D01*
X155118145Y-93366819D01*
X155110322Y-93365580D01*
X155110312Y-93365577D01*
X155074476Y-93359901D01*
X155062856Y-93357495D01*
X155027711Y-93348472D01*
X155027710Y-93348472D01*
X155020030Y-93346500D01*
X154999776Y-93346500D01*
X154980065Y-93344949D01*
X154967886Y-93343020D01*
X154960057Y-93341780D01*
X154952165Y-93342526D01*
X154916039Y-93345941D01*
X154904181Y-93346500D01*
X150742538Y-93346500D01*
X150674417Y-93326498D01*
X150636746Y-93288940D01*
X150536675Y-93134253D01*
X150536673Y-93134250D01*
X150533865Y-93129910D01*
X150513444Y-93107467D01*
X150383678Y-92964857D01*
X150383676Y-92964856D01*
X150380200Y-92961035D01*
X150376149Y-92957836D01*
X150376145Y-92957832D01*
X150205076Y-92822730D01*
X150201018Y-92819525D01*
X150196489Y-92817025D01*
X150192186Y-92814166D01*
X150193283Y-92812515D01*
X150149301Y-92768142D01*
X150134518Y-92698701D01*
X150159624Y-92632292D01*
X150186985Y-92605671D01*
X150329290Y-92504166D01*
X150491020Y-92342999D01*
X150530399Y-92288197D01*
X150621244Y-92161773D01*
X150621245Y-92161771D01*
X150624256Y-92157581D01*
X150631131Y-92143671D01*
X150679246Y-92091465D01*
X150744088Y-92073500D01*
X156260606Y-92073500D01*
X156328727Y-92093502D01*
X156363819Y-92127229D01*
X156470643Y-92279789D01*
X156473802Y-92284300D01*
X156635700Y-92446198D01*
X156640208Y-92449355D01*
X156640211Y-92449357D01*
X156713282Y-92500522D01*
X156823251Y-92577523D01*
X156828233Y-92579846D01*
X156828238Y-92579849D01*
X157023888Y-92671081D01*
X157030757Y-92674284D01*
X157036065Y-92675706D01*
X157036067Y-92675707D01*
X157246598Y-92732119D01*
X157246600Y-92732119D01*
X157251913Y-92733543D01*
X157480000Y-92753498D01*
X157708087Y-92733543D01*
X157713400Y-92732119D01*
X157713402Y-92732119D01*
X157923933Y-92675707D01*
X157923935Y-92675706D01*
X157929243Y-92674284D01*
X157936112Y-92671081D01*
X158131762Y-92579849D01*
X158131767Y-92579846D01*
X158136749Y-92577523D01*
X158246718Y-92500522D01*
X158319789Y-92449357D01*
X158319792Y-92449355D01*
X158324300Y-92446198D01*
X158486198Y-92284300D01*
X158489357Y-92279789D01*
X158596181Y-92127229D01*
X158651638Y-92082901D01*
X158699394Y-92073500D01*
X174945406Y-92073500D01*
X175013527Y-92093502D01*
X175034501Y-92110405D01*
X184749595Y-101825500D01*
X184783621Y-101887812D01*
X184786500Y-101914595D01*
X184786500Y-115561692D01*
X184766498Y-115629813D01*
X184718683Y-115673453D01*
X184693607Y-115686507D01*
X184689474Y-115689610D01*
X184689471Y-115689612D01*
X184522478Y-115814994D01*
X184514965Y-115820635D01*
X184458537Y-115879684D01*
X184434283Y-115905064D01*
X184372759Y-115940494D01*
X184301846Y-115937037D01*
X184244060Y-115895791D01*
X184225207Y-115862243D01*
X184183767Y-115751703D01*
X184180615Y-115743295D01*
X184093261Y-115626739D01*
X183976705Y-115539385D01*
X183840316Y-115488255D01*
X183778134Y-115481500D01*
X181981866Y-115481500D01*
X181919684Y-115488255D01*
X181783295Y-115539385D01*
X181666739Y-115626739D01*
X181579385Y-115743295D01*
X181528255Y-115879684D01*
X181521500Y-115941866D01*
X181521500Y-116080500D01*
X181501498Y-116148621D01*
X181447842Y-116195114D01*
X181395500Y-116206500D01*
X157794594Y-116206500D01*
X157726473Y-116186498D01*
X157705499Y-116169595D01*
X143549152Y-102013247D01*
X143515126Y-101950935D01*
X143516540Y-101891541D01*
X143524347Y-101862405D01*
X143533543Y-101828087D01*
X143553498Y-101600000D01*
X143533543Y-101371913D01*
X143519750Y-101320437D01*
X143475707Y-101156067D01*
X143475706Y-101156065D01*
X143474284Y-101150757D01*
X143471961Y-101145775D01*
X143379849Y-100948238D01*
X143379846Y-100948233D01*
X143377523Y-100943251D01*
X143246198Y-100755700D01*
X143084300Y-100593802D01*
X143079792Y-100590645D01*
X143079789Y-100590643D01*
X142927228Y-100483819D01*
X142896749Y-100462477D01*
X142891767Y-100460154D01*
X142891762Y-100460151D01*
X142694225Y-100368039D01*
X142694224Y-100368039D01*
X142689243Y-100365716D01*
X142683935Y-100364294D01*
X142683933Y-100364293D01*
X142473402Y-100307881D01*
X142473400Y-100307881D01*
X142468087Y-100306457D01*
X142240000Y-100286502D01*
X142011913Y-100306457D01*
X142006600Y-100307881D01*
X142006598Y-100307881D01*
X141796067Y-100364293D01*
X141796065Y-100364294D01*
X141790757Y-100365716D01*
X141785776Y-100368039D01*
X141785775Y-100368039D01*
X141588238Y-100460151D01*
X141588233Y-100460154D01*
X141583251Y-100462477D01*
X141552772Y-100483819D01*
X141400211Y-100590643D01*
X141400208Y-100590645D01*
X141395700Y-100593802D01*
X141233802Y-100755700D01*
X141230645Y-100760208D01*
X141230643Y-100760211D01*
X141123819Y-100912771D01*
X141068362Y-100957099D01*
X141020606Y-100966500D01*
X140014595Y-100966500D01*
X139946474Y-100946498D01*
X139925500Y-100929595D01*
X137830405Y-98834500D01*
X137796379Y-98772188D01*
X137793500Y-98745405D01*
X137793500Y-95199394D01*
X137813502Y-95131273D01*
X137847229Y-95096181D01*
X137999789Y-94989357D01*
X137999792Y-94989355D01*
X138004300Y-94986198D01*
X138166198Y-94824300D01*
X138178465Y-94806782D01*
X138224098Y-94741611D01*
X138297523Y-94636749D01*
X138299846Y-94631767D01*
X138299849Y-94631762D01*
X138391961Y-94434225D01*
X138391961Y-94434224D01*
X138394284Y-94429243D01*
X138401738Y-94401427D01*
X138452119Y-94213402D01*
X138452119Y-94213400D01*
X138453543Y-94208087D01*
X138473498Y-93980000D01*
X138453543Y-93751913D01*
X138394284Y-93530757D01*
X138383052Y-93506669D01*
X138299849Y-93328238D01*
X138299846Y-93328233D01*
X138297523Y-93323251D01*
X138166198Y-93135700D01*
X138004300Y-92973802D01*
X137999792Y-92970645D01*
X137999789Y-92970643D01*
X137909741Y-92907591D01*
X137816749Y-92842477D01*
X137811767Y-92840154D01*
X137811762Y-92840151D01*
X137614225Y-92748039D01*
X137614224Y-92748039D01*
X137609243Y-92745716D01*
X137603935Y-92744294D01*
X137603933Y-92744293D01*
X137393402Y-92687881D01*
X137393400Y-92687881D01*
X137388087Y-92686457D01*
X137160000Y-92666502D01*
X136931913Y-92686457D01*
X136926600Y-92687881D01*
X136926598Y-92687881D01*
X136716067Y-92744293D01*
X136716065Y-92744294D01*
X136710757Y-92745716D01*
X136705776Y-92748039D01*
X136705775Y-92748039D01*
X136508238Y-92840151D01*
X136508233Y-92840154D01*
X136503251Y-92842477D01*
X136410259Y-92907591D01*
X136320211Y-92970643D01*
X136320208Y-92970645D01*
X136315700Y-92973802D01*
X136153802Y-93135700D01*
X136022477Y-93323251D01*
X136020154Y-93328233D01*
X136020151Y-93328238D01*
X135936948Y-93506669D01*
X135925716Y-93530757D01*
X135866457Y-93751913D01*
X135846502Y-93980000D01*
X135866457Y-94208087D01*
X135867881Y-94213400D01*
X135867881Y-94213402D01*
X135918263Y-94401427D01*
X135925716Y-94429243D01*
X135928039Y-94434224D01*
X135928039Y-94434225D01*
X136020151Y-94631762D01*
X136020154Y-94631767D01*
X136022477Y-94636749D01*
X136095902Y-94741611D01*
X136141536Y-94806782D01*
X136153802Y-94824300D01*
X136315700Y-94986198D01*
X136320208Y-94989355D01*
X136320211Y-94989357D01*
X136472771Y-95096181D01*
X136517099Y-95151638D01*
X136526500Y-95199394D01*
X136526500Y-98981233D01*
X136525973Y-98992416D01*
X136524298Y-98999909D01*
X136524547Y-99007835D01*
X136524547Y-99007836D01*
X136526438Y-99067986D01*
X136526500Y-99071945D01*
X136526500Y-99099856D01*
X136526997Y-99103790D01*
X136526997Y-99103791D01*
X136527005Y-99103856D01*
X136527938Y-99115693D01*
X136529327Y-99159889D01*
X136534978Y-99179339D01*
X136538987Y-99198700D01*
X136541526Y-99218797D01*
X136544445Y-99226168D01*
X136544445Y-99226170D01*
X136557804Y-99259912D01*
X136561649Y-99271142D01*
X136573982Y-99313593D01*
X136578015Y-99320412D01*
X136578017Y-99320417D01*
X136584293Y-99331028D01*
X136592988Y-99348776D01*
X136600448Y-99367617D01*
X136605110Y-99374033D01*
X136605110Y-99374034D01*
X136626436Y-99403387D01*
X136632952Y-99413307D01*
X136655458Y-99451362D01*
X136669779Y-99465683D01*
X136682619Y-99480716D01*
X136694528Y-99497107D01*
X136700634Y-99502158D01*
X136728605Y-99525298D01*
X136737384Y-99533288D01*
X139196343Y-101992247D01*
X139203887Y-102000537D01*
X139208000Y-102007018D01*
X139213777Y-102012443D01*
X139257667Y-102053658D01*
X139260509Y-102056413D01*
X139280230Y-102076134D01*
X139283425Y-102078612D01*
X139292447Y-102086318D01*
X139324679Y-102116586D01*
X139331628Y-102120406D01*
X139342432Y-102126346D01*
X139358956Y-102137199D01*
X139374959Y-102149613D01*
X139415543Y-102167176D01*
X139426173Y-102172383D01*
X139464940Y-102193695D01*
X139472617Y-102195666D01*
X139472622Y-102195668D01*
X139484558Y-102198732D01*
X139503266Y-102205137D01*
X139521855Y-102213181D01*
X139529680Y-102214420D01*
X139529682Y-102214421D01*
X139565519Y-102220097D01*
X139577140Y-102222504D01*
X139612289Y-102231528D01*
X139619970Y-102233500D01*
X139640231Y-102233500D01*
X139659940Y-102235051D01*
X139679943Y-102238219D01*
X139687835Y-102237473D01*
X139693062Y-102236979D01*
X139723954Y-102234059D01*
X139735811Y-102233500D01*
X141020606Y-102233500D01*
X141088727Y-102253502D01*
X141123819Y-102287229D01*
X141233802Y-102444300D01*
X141395700Y-102606198D01*
X141400208Y-102609355D01*
X141400211Y-102609357D01*
X141478389Y-102664098D01*
X141583251Y-102737523D01*
X141588233Y-102739846D01*
X141588238Y-102739849D01*
X141785775Y-102831961D01*
X141790757Y-102834284D01*
X141796065Y-102835706D01*
X141796067Y-102835707D01*
X142006598Y-102892119D01*
X142006600Y-102892119D01*
X142011913Y-102893543D01*
X142240000Y-102913498D01*
X142468087Y-102893543D01*
X142473398Y-102892120D01*
X142473409Y-102892118D01*
X142531541Y-102876541D01*
X142602517Y-102878230D01*
X142653248Y-102909152D01*
X156976343Y-117232247D01*
X156983887Y-117240537D01*
X156988000Y-117247018D01*
X156993777Y-117252443D01*
X157037667Y-117293658D01*
X157040509Y-117296413D01*
X157060231Y-117316135D01*
X157063373Y-117318572D01*
X157063433Y-117318619D01*
X157072445Y-117326317D01*
X157085629Y-117338697D01*
X157104679Y-117356586D01*
X157111622Y-117360403D01*
X157122431Y-117366345D01*
X157138953Y-117377198D01*
X157154959Y-117389614D01*
X157162237Y-117392764D01*
X157162238Y-117392764D01*
X157195537Y-117407174D01*
X157206187Y-117412391D01*
X157244940Y-117433695D01*
X157252615Y-117435666D01*
X157252616Y-117435666D01*
X157264562Y-117438733D01*
X157283267Y-117445137D01*
X157301855Y-117453181D01*
X157309678Y-117454420D01*
X157309688Y-117454423D01*
X157345524Y-117460099D01*
X157357144Y-117462505D01*
X157388959Y-117470673D01*
X157399970Y-117473500D01*
X157420224Y-117473500D01*
X157439934Y-117475051D01*
X157459943Y-117478220D01*
X157467835Y-117477474D01*
X157486580Y-117475702D01*
X157503962Y-117474059D01*
X157515819Y-117473500D01*
X181395500Y-117473500D01*
X181463621Y-117493502D01*
X181510114Y-117547158D01*
X181521500Y-117599500D01*
X181521500Y-117738134D01*
X181528255Y-117800316D01*
X181579385Y-117936705D01*
X181666739Y-118053261D01*
X181783295Y-118140615D01*
X181919684Y-118191745D01*
X181981866Y-118198500D01*
X183778134Y-118198500D01*
X183840316Y-118191745D01*
X183976705Y-118140615D01*
X184093261Y-118053261D01*
X184180615Y-117936705D01*
X184202799Y-117877529D01*
X184224598Y-117819382D01*
X184267240Y-117762618D01*
X184333802Y-117737918D01*
X184403150Y-117753126D01*
X184437817Y-117781114D01*
X184466250Y-117813938D01*
X184638126Y-117956632D01*
X184831000Y-118069338D01*
X185039692Y-118149030D01*
X185044760Y-118150061D01*
X185044763Y-118150062D01*
X185152017Y-118171883D01*
X185258597Y-118193567D01*
X185263772Y-118193757D01*
X185263774Y-118193757D01*
X185476673Y-118201564D01*
X185476677Y-118201564D01*
X185481837Y-118201753D01*
X185486957Y-118201097D01*
X185486959Y-118201097D01*
X185698288Y-118174025D01*
X185698289Y-118174025D01*
X185703416Y-118173368D01*
X185708366Y-118171883D01*
X185912429Y-118110661D01*
X185912434Y-118110659D01*
X185917384Y-118109174D01*
X186117994Y-118010896D01*
X186299860Y-117881173D01*
X186458096Y-117723489D01*
X186588453Y-117542077D01*
X186589776Y-117543028D01*
X186636645Y-117499857D01*
X186706580Y-117487625D01*
X186772026Y-117515144D01*
X186799875Y-117546994D01*
X186815852Y-117573066D01*
X186859987Y-117645088D01*
X187006250Y-117813938D01*
X187178126Y-117956632D01*
X187371000Y-118069338D01*
X187579692Y-118149030D01*
X187584760Y-118150061D01*
X187584763Y-118150062D01*
X187692017Y-118171883D01*
X187798597Y-118193567D01*
X187803772Y-118193757D01*
X187803774Y-118193757D01*
X188016673Y-118201564D01*
X188016677Y-118201564D01*
X188021837Y-118201753D01*
X188026957Y-118201097D01*
X188026959Y-118201097D01*
X188238288Y-118174025D01*
X188238289Y-118174025D01*
X188243416Y-118173368D01*
X188248366Y-118171883D01*
X188452429Y-118110661D01*
X188452434Y-118110659D01*
X188457384Y-118109174D01*
X188657994Y-118010896D01*
X188839860Y-117881173D01*
X188998096Y-117723489D01*
X189128453Y-117542077D01*
X189129776Y-117543028D01*
X189176645Y-117499857D01*
X189246580Y-117487625D01*
X189312026Y-117515144D01*
X189339875Y-117546994D01*
X189355852Y-117573066D01*
X189399987Y-117645088D01*
X189546250Y-117813938D01*
X189718126Y-117956632D01*
X189911000Y-118069338D01*
X190119692Y-118149030D01*
X190124760Y-118150061D01*
X190124763Y-118150062D01*
X190232017Y-118171883D01*
X190338597Y-118193567D01*
X190343772Y-118193757D01*
X190343774Y-118193757D01*
X190556673Y-118201564D01*
X190556677Y-118201564D01*
X190561837Y-118201753D01*
X190566957Y-118201097D01*
X190566959Y-118201097D01*
X190778288Y-118174025D01*
X190778289Y-118174025D01*
X190783416Y-118173368D01*
X190788366Y-118171883D01*
X190992429Y-118110661D01*
X190992434Y-118110659D01*
X190997384Y-118109174D01*
X191197994Y-118010896D01*
X191379860Y-117881173D01*
X191538096Y-117723489D01*
X191668453Y-117542077D01*
X191670746Y-117537437D01*
X191672446Y-117534608D01*
X191724674Y-117486518D01*
X191780451Y-117473500D01*
X203121233Y-117473500D01*
X203132416Y-117474027D01*
X203139909Y-117475702D01*
X203147835Y-117475453D01*
X203147836Y-117475453D01*
X203207986Y-117473562D01*
X203211945Y-117473500D01*
X203239856Y-117473500D01*
X203243791Y-117473003D01*
X203243856Y-117472995D01*
X203255693Y-117472062D01*
X203287951Y-117471048D01*
X203291970Y-117470922D01*
X203299889Y-117470673D01*
X203319343Y-117465021D01*
X203338700Y-117461013D01*
X203350930Y-117459468D01*
X203350931Y-117459468D01*
X203358797Y-117458474D01*
X203366168Y-117455555D01*
X203366170Y-117455555D01*
X203399912Y-117442196D01*
X203411142Y-117438351D01*
X203445983Y-117428229D01*
X203445984Y-117428229D01*
X203453593Y-117426018D01*
X203460412Y-117421985D01*
X203460417Y-117421983D01*
X203471028Y-117415707D01*
X203488776Y-117407012D01*
X203507617Y-117399552D01*
X203543387Y-117373564D01*
X203553307Y-117367048D01*
X203584535Y-117348580D01*
X203584538Y-117348578D01*
X203591362Y-117344542D01*
X203605683Y-117330221D01*
X203620717Y-117317380D01*
X203622431Y-117316135D01*
X203637107Y-117305472D01*
X203665298Y-117271395D01*
X203673288Y-117262616D01*
X206216134Y-114719770D01*
X239152253Y-81783652D01*
X239160539Y-81776112D01*
X239167018Y-81772000D01*
X239213644Y-81722348D01*
X239216398Y-81719507D01*
X239236135Y-81699770D01*
X239238615Y-81696573D01*
X239246320Y-81687551D01*
X239271159Y-81661100D01*
X239276586Y-81655321D01*
X239280405Y-81648375D01*
X239280407Y-81648372D01*
X239286348Y-81637566D01*
X239297199Y-81621047D01*
X239304758Y-81611301D01*
X239309614Y-81605041D01*
X239312759Y-81597772D01*
X239312762Y-81597768D01*
X239327174Y-81564463D01*
X239332391Y-81553813D01*
X239353695Y-81515060D01*
X239358733Y-81495437D01*
X239365137Y-81476734D01*
X239370033Y-81465420D01*
X239370033Y-81465419D01*
X239373181Y-81458145D01*
X239374420Y-81450322D01*
X239374423Y-81450312D01*
X239380099Y-81414476D01*
X239382505Y-81402856D01*
X239391528Y-81367711D01*
X239391528Y-81367710D01*
X239393500Y-81360030D01*
X239393500Y-81339776D01*
X239395051Y-81320065D01*
X239396980Y-81307886D01*
X239398220Y-81300057D01*
X239394059Y-81256038D01*
X239393500Y-81244181D01*
X239393500Y-70142815D01*
X239413502Y-70074694D01*
X239471280Y-70026407D01*
X239487925Y-70019512D01*
X239487927Y-70019511D01*
X239492502Y-70017616D01*
X239708376Y-69885328D01*
X239900898Y-69720898D01*
X240065328Y-69528376D01*
X240197616Y-69312502D01*
X240218374Y-69262389D01*
X240292611Y-69083164D01*
X240292612Y-69083162D01*
X240294505Y-69078591D01*
X240353609Y-68832403D01*
X240373474Y-68580000D01*
X240353609Y-68327597D01*
X240327344Y-68218192D01*
X240304974Y-68125016D01*
X240294505Y-68081409D01*
X240263934Y-68007604D01*
X240199511Y-67852072D01*
X240199509Y-67852068D01*
X240197616Y-67847498D01*
X240065328Y-67631624D01*
X239900898Y-67439102D01*
X239708376Y-67274672D01*
X239492502Y-67142384D01*
X239486119Y-67139740D01*
X239471280Y-67133593D01*
X239416000Y-67089044D01*
X239393500Y-67017185D01*
X239393500Y-62694500D01*
X239413502Y-62626379D01*
X239467158Y-62579886D01*
X239519500Y-62568500D01*
X239908134Y-62568500D01*
X239970316Y-62561745D01*
X240106705Y-62510615D01*
X240223261Y-62423261D01*
X240310615Y-62306705D01*
X240361745Y-62170316D01*
X240368500Y-62108134D01*
X240368500Y-60299594D01*
X240388502Y-60231473D01*
X240405405Y-60210499D01*
X241084905Y-59530999D01*
X241147217Y-59496973D01*
X241218032Y-59502038D01*
X241274868Y-59544585D01*
X241299679Y-59611105D01*
X241300000Y-59620094D01*
X241300000Y-121794000D01*
X241279998Y-121862121D01*
X241226342Y-121908614D01*
X241174000Y-121920000D01*
X132206000Y-121920000D01*
X132137879Y-121899998D01*
X132091386Y-121846342D01*
X132080000Y-121794000D01*
X132080000Y-40766000D01*
X132100002Y-40697879D01*
X132153658Y-40651386D01*
X132206000Y-40640000D01*
X241174000Y-40640000D01*
X241242121Y-40660002D01*
G37*
%TD.AperFunction*%
M02*
